<?xml version="1.0" encoding="utf-8"?>
<!-- Generator: Adobe Illustrator 19.2.1, SVG Export Plug-In . SVG Version: 6.00 Build 0)  -->
<svg version="1.1" id="Layer_1" xmlns="http://www.w3.org/2000/svg" xmlns:xlink="http://www.w3.org/1999/xlink" x="0px" y="0px"
	 viewBox="0 0 400 100" style="enable-background:new 0 0 400 100;" xml:space="preserve">
<style type="text/css">
	.st0{fill:#202020;}
</style>
<g>
	<g>
		<g>
			<g>
				<g>
					<path class="st0" d="M387.7,92.1c0.4,0.1,1.4,0,1.2-0.3l-1.7-0.1L387.7,92.1z"/>
					<path class="st0" d="M390.6,89.8c-0.8-0.3-2.3-0.6-3.8-0.2c1.6,0.2,1,0.4,2.9,0.6c0.2,0.3-0.5,0.6-1.1,0.6
						c0.4,0.1-0.3,0.5,0.7,0.6c1.2-0.5,1.3-1.1,0.2-1.5C389.8,89.7,390.3,89.8,390.6,89.8z"/>
					<path class="st0" d="M380.6,58.5l0,0.3C380.6,58.7,380.6,58.6,380.6,58.5z"/>
					<path class="st0" d="M365.6,43.7c0.2,0.1,0.3-0.1,0.4-0.2C365.8,43.6,365.6,43.6,365.6,43.7z"/>
					<path class="st0" d="M363.4,40.3c0,0.1,0.1,0.1,0.1,0.2C363.5,40.3,363.5,40.2,363.4,40.3z"/>
					<path class="st0" d="M380.6,58.5l0-0.8C380.2,58.1,380.5,58.3,380.6,58.5z"/>
					<path class="st0" d="M386.1,86c0.1,0.1,0.3,0.1,0.5,0.2c-0.1-0.1-0.2-0.1-0.2-0.2C386.2,86,386.2,86,386.1,86z"/>
					<path class="st0" d="M386.9,65.6l0.1,0.1c0.2,0,0.4-0.1,0.7-0.2L386.9,65.6z"/>
					<path class="st0" d="M390.3,72c0-0.2-1.3,0.3-1.9,0.5c0.6-0.1,0.9-0.1,1-0.1C389.7,72.3,390,72.2,390.3,72z"/>
					<path class="st0" d="M391.4,83.5l0.2,0.2C391.5,83.6,391.5,83.6,391.4,83.5z"/>
					<path class="st0" d="M384.4,61c0.2-0.1,0.3-0.3,0.4-0.3C384.6,60.7,384.5,60.9,384.4,61z"/>
					<path class="st0" d="M197.9,26.1c0.1,0,0.1-0.1,0.2-0.1C198,26,197.9,26,197.9,26.1z"/>
					<path class="st0" d="M200.7,15.1L200.7,15.1c0.4,0,0.6,0,0.9-0.1L200.7,15.1z"/>
					<path class="st0" d="M358,35.7C358,35.7,358,35.7,358,35.7C358.2,35.6,358.1,35.6,358,35.7z"/>
					<path class="st0" d="M297.7,30.7c0.8,1.2-0.9,1.7,0.2,3C297.7,33.2,298.6,31.5,297.7,30.7z"/>
					<path class="st0" d="M386.2,85.8c0-0.1,0-0.2-0.1-0.3C386.1,85.7,386.2,85.8,386.2,85.8z"/>
					<path class="st0" d="M297.9,33.7L297.9,33.7l0.1,0.1C297.9,33.8,297.9,33.8,297.9,33.7z"/>
					<path class="st0" d="M342.7,31.7c0,0.2,0,0.4,0,0.6C342.7,32.2,342.7,32,342.7,31.7z"/>
					<path class="st0" d="M353.2,36.8l-0.2-0.3C353.1,36.7,353.1,36.8,353.2,36.8z"/>
					<path class="st0" d="M336.5,32.6c-0.1-0.1-0.2-0.3-0.4-0.2c0,0.1,0,0.1,0,0.2C336.2,32.4,336.3,32.3,336.5,32.6z"/>
					<path class="st0" d="M330.4,31.9c0,0.1,0.1,0.2,0.1,0.3c0.1,0,0.1,0,0.2-0.1L330.4,31.9z"/>
					<path class="st0" d="M215.5,38.4c0-0.4,0.1-0.9,0.1-1.3C215.4,38,214.4,38,215.5,38.4z"/>
					<path class="st0" d="M386.8,85.9c-0.4,0-0.5,0-0.6-0.1c0,0.1,0.1,0.1,0.1,0.2C386.5,86,386.7,86,386.8,85.9z"/>
					<path class="st0" d="M334.6,43.5c0,0-0.2-0.1-0.4-0.2c-0.2-0.1-0.4-0.2-0.4-0.2C334,43.3,334.3,43.5,334.6,43.5z"/>
					<path class="st0" d="M258.8,44.7l-0.2,0.2C258.6,44.9,258.7,44.8,258.8,44.7z"/>
					<path class="st0" d="M331.2,43.1c-0.1-0.5-0.2-0.8-0.4-1c0,0.1-0.1,0.2-0.1,0.4L331.2,43.1z"/>
					<path class="st0" d="M215.7,37C215.7,37.1,215.7,37.1,215.7,37C215.7,37.1,215.7,37.1,215.7,37z"/>
					<path class="st0" d="M207.7,37c1,0.6,1.3-1.3,2.1-2.1c1.3,0.1-0.1,1.5-0.2,2.5c1-0.1,2.2-1.3,2.7-1c-0.1,0.3,0,0.4-0.3,0.7
						c1.3-1,2.3,0.9,3.8-0.5c0,0.2,0,0.3,0,0.5c0.2-0.9,0.5-1.8,0.7-2.4c0.4,0.1,1.1-0.8,0.9,0.3c-0.2-0.1-0.4,0.3-0.6,0.6l0.6-0.3
						c-0.2,1.8-0.8,0.4-1.2,1.6c1-0.2,2.4-1.3,2.9-0.6c-0.4,1.7-1.7,0.1-1.3,1.8l-0.8-0.9c-0.1,2.8-0.6-0.4-0.8,2.6
						c1.2,0.9,1.8-0.3,3,0.5c0.6-0.8,0.3-1.4,0.8-2.2c2.3-1.2,0.4,4.5,2.3,2.7c0.6-1,1.2-3.1,1.9-1.8l-0.7,1.8
						c1.2,0.5,1.3-2.5,2.3-1c-0.4,0.7-1.1,0.4-1,0.7c0.5,1.7,0.8-0.9,1.5-0.8l-0.2,1.7c1.4,0,3.1-0.9,4.6-0.9
						c-0.2,0.5-0.5,1-0.3,1.5c2-0.5,3.9,0.9,5.6,2.2l0.9-1.4c0.2,0,0.2,0.7,0,1c0.6,0.7,0.2-0.9,0.6-1.4c0.4,0,0.4,0.9,0.1,1.3
						c1.4-1.1,3.9-2.2,5-0.5l-0.3,0.4c1,0.7,1.5-2.9,2.3-1.4l-0.2,0.2c2.1,0.9,4.7-0.3,6.2,2c0.5-2.1,2.1,1.1,2.5-1.9
						c1.2,1.5,0.8,2,2.5,3.1c0.5,0.2,0.8-1.8,1.4-2.1l0,1.5l0.8-1.6l0.4,1.9l0.6-0.4c-0.2-0.1-0.5-0.7-0.4-1.1
						c0.9-0.7,2.1,1.1,2.1,1.9l2.1-1.3c0,0.6-0.4,0.8-0.7,1.2c1.1-1.6,0.2,1.6,1.2,0.2c-0.1-0.3,0.1-0.9,0.1-1.2
						c0.5,0.9,1.6,0.9,2.5,0.5l-0.1,1.1c1.5,0.2,3.2-0.6,4.9-0.6c-0.6-0.5-0.6-2.3-0.1-2.5l0.3,1.6c0.3-1-0.5-0.6,0.1-1.9
						c0.6,0.2,0.5,1.8,0.2,2.4l0.7-0.6c0.1,0.5-0.1,0.7-0.1,1.4c0.3-1,1.4,1.6,1.8-0.2l0.1,0.5c1.7-0.1,2.4-0.7,3.8-0.9
						c-0.1-1.4,0.5-1.1,0.8-2.3c1,0.4,2.2,1.4,3.4,1.2c0.8-0.8,0.1-1.2,0.5-2.1c0.2,1.3,1.4,1.1,0.8,2c1.4-0.3,1.8-0.4,3.5-1.6
						c-0.2-0.5-0.5-0.7-0.4-1.2c0.3-0.2,0.8,0.5,0.8,1.1l-0.1,0.1c1.8-2.1,5,3.3,6.4,0.5l-0.1,0.1l1.5-1.5c0.8,0.1-0.4,1,0.3,1.7
						c1.6-2.3,2.9,0,4.2-1.5c1.5,3.7,4-0.6,5.7,1.7l-0.2-0.9c0.3-0.9,0.5,0.5,0.8,0.7c-0.1-0.7-0.5-0.8-0.3-1.3
						c3.3-1.3,6.9,0.8,10.3,1.6c1.2,0.2,0.6-4.6,2.2-2.5l-0.4,1.7c2.4-2,5,0,7.4-1.5c-0.2,0.4-0.2,0.9-0.4,0.9
						c0.5,1.2,1.9,0.1,1.9-0.8c0.4,0.1,0,0.9,0.2,1.4c0.5,0.7,1.4-1.4,1.5-0.2c0,0.2-0.2,0.4-0.3,0.5c0.4-0.6,1.5,0.2,1.3-1.2
						c0.8,0.7,1.8-0.5,2.4,0.4c0.6-1.5,1.4,0.9,1.8-1.2c-0.3,2.2,1.3,2,2,1c-0.3,0.6,0.4,0.8,0,1.7c0.6,0.1,1.3-0.3,1.3-1.4
						c0.7,2.8,2.7-1.7,2.7,1.8c1-0.4,2-0.7,3-0.9c1-0.2,1.9-0.3,2.8-0.3c-0.6,2.2-1.9-0.3-2.4,2c1.7-0.5,3.2-2.1,4.6-1.1
						c0.3,0.4-0.5,0.9-0.8,1.2c0.9-0.2,1.6,0.1,2.3,0.3c0.7,0.3,1.4,0.5,2.3,0.2c-0.1,0.2-0.3,0.4-0.5,0.5c0.3,0,0.5,0.5,0.8-0.4
						l-0.4,0.2c0.1-1.6,2.2-2.5,2.5-3.2c-1.5,2.5,1.1,1.2-1.1,4.4c0.2-0.1,0.6-0.5,0.9-1.1c0.2,0.3,0.1,0.7-0.5,1.3
						c1.1-0.1,1.3-1.3,2.1-0.9c-0.2,0.5-0.5,0.5-0.8,1c0.8-0.7,1.6-1.4,2.2-0.6c-0.2,0.2-0.3,0.6-0.5,0.5c1.3,0.4,3.2-1.3,4.1,0.3
						c-1.4,1.7,0.1,0.9-0.8,2.5l0.9-0.1l0.2-0.9c0.6,0.4,1.8-0.5,2,0.4l-0.8,0.4l1.3,0.4c0,0-0.1-0.3-0.1-0.5
						c-0.1-0.2-0.1-0.5-0.1-0.5c1.1-0.4,1.2-2.1,1.7-1.1c-0.3,0,0.6,0.4,0.3,1.6l0,0c0.6-0.3,1.3-0.6,1.5,0.1
						c-0.2,0.6-1.3,1.6-1.4,2c1.2-1.1,1.6,0.6,2.9-0.4c-0.4,0.2-1,1-1,1.2l1-0.8c0,0.5-0.1,0.7-0.6,1.3c0.6,0.8,1.2-2,1.5-0.5
						c-0.1,0-0.2,0.2-0.5,0.2c0.6,1.1,2.2,0.9,2.7,2c-1,1.6-1-0.3-1.8,1.2c0.7,0.3,1.6,0.5,2.5,0.7c0.9,0.2,1.7,0.5,2.1,1.2l0-0.3
						c2.1-1.7-0.2,1.7,1.2,1.4c-0.3,0-1.3,0.8-1,0.6c0.4,1,1.8,1.1,3.5,1.8l-0.7,0.3c-0.1,0.8,0.7,1.5,0.8,2.2
						c0.7-0.3,0.8,0.1,1.5-0.7c-0.5,1-0.5,1.6-0.2,2c0.2,0.4,0.7,0.7,1.2,0.9c1,0.4,2.1,0.9,1.2,2.5c-0.1-0.2-0.8-0.1-0.7,0l1.3,1
						c0.9-0.7,0.5-0.5,1.1-1.2c0.7-0.2,1.4,0,1.6,0.3c-1-0.2-1.6,0.9-2,1.5c0.3-0.2,0.7-0.3,1-0.5c-1.4,1.7,2.1-1,1.4,0.7l-0.6,0.2
						c0.5,0.2,1.4,0.2,1.4,0.7c-1.1,0.8-0.8-0.1-1.8,0.3c0.3,0.5,2.8,0,1.9,1.1c-0.5-0.1-0.6-0.4-1.1-0.5c-1.1,1.2-0.7,1.1-0.8,1.6
						l0-0.1l-0.2,1.2l0.3-0.4c3.5-0.7,1.2,1.2,3.7,1.3c-2.4-0.2-1.2,0.3-2.7,0.8c-0.3,0.4-0.6,0.9-1,1c1.3,0-0.6,1.1,1.3,1.1
						c-0.5,0.2,0.1,0.5-1.1,0.8c0.6,0.5,0.8-0.4,1.4-0.6c1,0.2,0.7,0.9,0.4,1.6c-0.2,0.7-0.4,1.4,0.9,1.8c1.2,0.9,2.8,0.8,3.9,1.8
						c-0.7,0.5-1.8,0.1-1.8,0.1c-0.6,0.8-0.3,1.2,0.3,1.7c-0.4,0-0.8,0.1-1.3,0.4c0.2,0.4,1.8,0,1.2,0.7c-0.6,0-1.4,0-2-0.1
						c0.5,0.5,1.5,0.8,2,1.4c-0.8,0.3-1.3-0.2-1.9-0.3c0.5,0.6,1,1.5,2.4,1.6c0,0,0.1-0.1,0.2-0.2c0.1-0.1,0.2-0.2,0.2-0.2
						c0.1,0.2-1.1,0.3-1.4,0.1c-1.1-0.4,0.3-0.8,0.8-0.9l0.4,0.4c2.8-0.8-0.7-1.6-0.7-2.4l2.1,0c0,0-0.5-0.1-0.9-0.3
						c-0.5-0.1-0.9-0.3-0.9-0.3c0.5-0.3,1.6-0.6,2-0.3c0.9-0.8-0.8-0.4,0.2-1.1c0.2-0.1,0.3-0.1,0.4-0.1l-0.7-0.5
						c0.5,0,1.4-0.4,1.2,0c0.9-1.4-1.9-1.4-0.5-2.2l0.1,0.1c-1.1-1.3-1.5,0.2-3.6-0.4c0,0,0.9-0.4,1.7-0.9c0.9-0.4,1.7-0.9,1.7-0.9
						l-1.5,0.3c0-0.2,0-0.5,0.6-0.6c-1.2-0.3-0.6,0.3-1.6,0.3c1.1-1.2-1.3-1.7,1-2.7c-1.2,0.1-0.6,1-1.6,0.5
						c2.4-1.1-0.7-0.7,0.2-1.8c1.3-0.3,0.9,0.6,1.8-0.5c-2.2,0.4-0.1-1.5-0.7-1.9c-1.7,0.7-1.2-0.9-2.2-1.5c0.6-0.2,0.1-2.1,0.2-3.2
						l0.3-0.1c-1.7,0.7-1.8-0.3-2.5-0.7c1-0.5,1.4-0.6,2-0.5l-0.3-0.6c-0.6,0.2-1,0.1-1.4-0.1l1.3-0.5c-0.5-0.7-2.3-0.7-2.1-2.1
						c-1.1,0.7-2.5,2.6-3.9,2.2c0.6-0.4,1.5-1.1,1.9-1c-0.1,0-0.7,0-0.5-0.3l1.2-0.2c0.2-0.7-1,0.3-1.1-0.1c0.8-0.5,0.4-0.6,1.1-1
						c0.1,0-0.1,0.5,0.3,0.4c-0.1-0.5,0.1-1.3,0.6-1.9c-0.4,0.4-1.1,0.7-1.4,0.5c-0.6-0.7,0.8-0.9,0.9-1.6c-0.7,0.2-0.4-0.6-1.6,0.2
						c-0.1-0.2,0.4-0.7,0.6-1c-0.8,0-1.4-1.6-2.4-0.2l0,0.2c0,0-0.1,0-0.1,0l0,0l0,0c-1-0.1-1.3-0.8-1.6-1.6c-0.2-0.8-0.4-1.7-1.1-2
						l0.4-0.3c-1-0.3-1.6-1.2-2.8-0.9c-0.2-0.2,0.2-1.1,0.7-1.4c-0.7-0.2-1.2,0.1-1.3-1.1c1.1-0.2,0.4-0.7,0.9,0
						c-0.3-0.9,0.1-1.6-1.5-1.3c1.1-0.7,0.6-1.6,0-1.6l-0.1,1.1c-0.5-0.2-0.7-0.5-1-0.9l1.3-1.1c-0.1-1.4-1.2-1.3-2.3-1.2
						c-1.1,0.1-1.9,0.1-1.5-1.7c-1.1,0.6,0.3,1.3-0.9,2.1c-0.5-0.7,0.2-3.1,0-3.3c-0.5-1.4-2.3,1.4-2.9,0.2c-0.2,0.6-1,2-2,2
						c-0.6-0.6,0.5-2.6,1.2-2.8c0.2,0.1,0.2,0.3,0.1,0.4c0.3,0,0.8-0.1,0.8-0.8l-0.4,0.4c0-0.7-1.1-1.3-0.3-2
						c-0.8,0.1-0.7,0.7-0.5,1.2c-0.5-1.3-1.4-0.9-2.1-1.9c0,0.4-0.2,1.1-0.4,1c-1.1-1.4-1.2,0.6-2.2,0.4c-0.1-1.1,1.2-1.8-0.1-1.7
						c-0.3-0.9,0.6-1.5,1-1.8c-1.4,0.5-1.4-1.5-1.9-2l0.7-0.2c-0.4,0.1-0.7,0-0.9-0.1l-0.2,1.2c-0.2-0.3-0.4-0.4-0.2-0.9
						c-0.6,0.6-0.6,1.9-1.6,2.6c-0.1-0.7-1.4,0.1-0.9-1.4c1,1,0.5-1.5,1.6-1.3c-0.3,0.1-0.5,0-0.7-0.3c0-0.2,0.2-0.3,0.3-0.3
						c-0.6-1.8-1.2,1.4-2.4,0.9c0.5-0.8,0.3-1.7,0.1-1.6c0.5,0.2-0.3,1.5-1,1.9c-0.5-0.9-1,0.2-1.4-0.1l0.3,0.5
						c-0.5,0.8-0.8,0.5-1.4,0.6c0.2-0.7,0.6-0.3,0.6-0.6c-1.1,1.3-0.8-2-2-1.3c-0.2-0.7,0.5-1.6,0.3-2.1c-1.3,0.8-0.7-1.5-2-0.9
						c0,1.2,0.1,1-1,1.9c0,0,0.5-0.1,0.9-0.2c0.5-0.1,1-0.1,1-0.1l-1.6,1.3c0.5,0.2,1.3-0.4,1.5-0.1c-0.8,0.8-0.6,0.5-0.7,1.5
						c-0.1-1.9-1.6,0.6-2-0.8l0.8-2.8c-0.9-1.6-2.5,0.9-3.9-0.2l0.4,0.6c-0.5,1.1-1-0.1-1.6,0.3c0.3-1,0-1.4-0.1-2
						c-0.1,0.7-1.1-0.3-1.7,1.6l-0.4-1.4c-1.2-0.8-1.9,2.5-3.1,2c0.5-1,0.1-1.8,1-2.4c-0.4-0.1-0.7-0.3-0.9,0.4
						c-0.1-0.6-1.3,1.1-1.6,0.2c-0.2,0.4-0.4,1.4-0.9,1.3c0-0.2,0.1-0.5,0.1-0.5c-0.1,0.5-0.8,0.6-0.5,1.7c-0.4-1.6-1.3-1.7-2.1-1.7
						c-0.9,0-1.7,0.1-2.1-1.3c-0.9,0.2-2,0.5-2.8,0.5c0.1-0.3,0-0.5,0.2-0.4c-1.1-1-0.9,2.8-2,1.7c-0.6-1.6,0.7-0.8,0.3-1.4
						c0-3.3-1.5,0.4-2.3-1.6l0.2-0.2c-0.6-1.1-1.6,1.2-2.7,0.9c0,0,0.1-0.3,0-0.5c-0.8,1.6-2.1,2.2-3.1,2.6c0.3-1.3,0.5-0.7,0.3-2
						c-0.5,0.2,0.1,2.1-0.8,2.4c-0.3-0.7-1-1.3-1.1-2.7l0.9-0.1c-0.5-1.8-1.1,0.1-1.6-0.2l0-0.8c-1.3,0.3-1.3,2.3-2.7,2.1l0.2,0.6
						c-0.7,2-0.7-1.1-1.4,0.4l-0.3-2c-0.5,0.5-1.7,2-2.5,2.4c0.4-1.5,1.4-2.3,2.1-3.2c-0.5,0-1.7,0.2-1.9,1.2
						c0.2-0.2,0.4-0.7,0.6-0.4c-0.5,1.6-1.3,2.4-2.3,2.4c-0.1-3.8-2.6-0.8-3.6-3.7c-1.6,1.5-3.5-0.3-5.6,0.1c1,2.9-0.6,0.1-0.2,3.2
						c-0.5,0.2-0.6,0.2-0.7,0l-1.6-1.7c-0.4-0.9,0.4-0.7,0.3-1.4c-1.1-0.1-0.6-1.3-1.3-2c0.2,1.1-0.2,1.6-0.8,1.2l1,1.3
						c-1.3,1.8-1.5-2.4-2.8-0.7l0.4-1c-0.7,0.6-2.7,0.2-3.2,2.8c-0.2-0.3-0.4-1.2-0.1-1.4c-1.8-0.2-3.7,3-5.2,1.6l0.1-0.8
						c-0.3,0.2-0.4,1.5-0.9,0.7c0-0.3,0.1-0.8-0.1-0.8c-0.1,0.3-0.8,1.4-1.2,1l0.3-0.9c-1.8-0.8-2.4,2.3-3.8,2.9
						c-0.2-2.2-1.6-2.8-2.2-3.1l0-0.3c-2-0.1-3.2,2-5,3c-1.2-2.3-3.9-0.8-5.7-2.1c0.3,0.4,0,1.7-0.3,1.9c-0.4-0.4-1.2,1.5-1.1-0.5
						l0.2,0c-0.3-2-1.2-1.4-1.9-1.5l-0.1,2.6c-0.9-1.9-2-1.6-3.1-1.2c-1.1,0.4-2.1,0.8-2.5-0.9c-0.5,0.6-1,0.6-1.4,1.3l0.1-1.4
						c-1.2-0.4-1.7-0.6-3.2-0.4l0.4-1c-0.8-0.1-1.3,4-2.1,4l-0.1-2.1c-1.5-0.1-2.7-2-4.3-0.3c0.1-0.3,0.2-0.9,0.4-1
						c-0.7-0.1-2.4-1.7-2.5,1.2c0.2-1.9-1.5-0.3-2.3,0.4L242,32c-0.9,1.7-1,2.2-2,2.5c-0.2-0.2,0-1.1,0.2-0.7
						c-0.6-0.8-0.7,1.2-1.5,0.4l0.5-0.8c-0.7-0.2-0.7,0.3-1.3,1.2c-0.6,0.5-1.4-0.6-1.3-1.8c-0.2,0.7-0.8,1.7-1.2,1.3
						c0-0.5,0.2-0.7,0.3-0.9c-1.1-1.1-2.1,1.3-2.8-0.2c0.1-0.5,0-0.7,0-0.8c1,0.2,1.8,0.4,1.7,0.5c0.2-1.3-0.5-1.6,0.4-3.3
						c-0.8,0.8-2.2,2.7-2.9,2c0-0.1,0-0.3,0-0.5l0.1-0.1c-0.2-0.2-0.3-0.1-0.5,0.1c-0.2-0.3-0.3-0.4-0.6-0.5
						c0.1-1.1-0.8-0.7-1.2-0.9c-0.2,1.4-0.7,1.1-0.5,2.3c0-0.1,0.1-0.2,0.4-0.2c0.1,0,0.1,0,0.2-0.1c0,0,0,0.1-0.1,0.1
						c0.3,0,0.6,0,1,0.1c-0.4,0.6-0.9,1.2-1.2,0.3c-0.4,0.8-0.8,1.7-1,2.1c-0.2-2-1-3.3-0.9-4.5c-1.4,0.5-2.9-0.1-4.3,2.3
						c-0.4,0.2-0.2-0.8-0.2-1.3c0.3-0.2,0.5-0.1,0.7-0.5c-0.8,0.5-2-0.2-2.7,1.5c-0.6-1,0.9-1.5-0.3-1.5l0.3-0.5
						c-0.7-1.7-1.8-0.9-3.1-0.2c-1.2,0.7-2.6,1.2-3-1.1c0.1,0.3,0.1,0.4,0,0.7c-0.9-1.3-2.3-1.7-3.7-2.2c-1.3-0.6-2.6-1.4-2.6-3.3
						c-0.1-0.9-1-0.1-2,0.1l1-1.1c0,0-0.5,0.1-0.9,0.3c-0.5,0.1-0.9,0.2-0.9,0.2c-0.9-0.1-0.5-1.1-0.1-1.9c0.3-0.9,0.6-1.6-0.8-1.6
						l-0.8,0.7c-0.1-0.5-1.3-1.2-0.2-1.6c-0.2,0-1,0.3-0.6-0.1l0.7-0.3c0,0-0.4-0.2-0.9-0.3c-0.4-0.2-0.9-0.4-0.9-0.4
						c0.1-0.6,0.8-0.8,1.5-1c0.7-0.3,1.3-0.5,1.2-1.1c-0.4-0.3-2.6-0.8-3-0.5c0,0.2-0.3,0.7-1.1,0.9l-0.5-0.4
						c-1.1,0.2-2.3,0.3-3.4,0.6c-1.1,0.3-2,0.8-2.5,1.8c0,0,0.4,0.2,0.8,0.4c0.4,0.2,0.9,0.4,0.9,0.4l-1,0.7l-0.4-0.9
						c-0.8,0.9,0.2,1,0.9,1.1c-0.5,0.3-0.9,0.6-1,0.9c0,0,0.6,0.1,1.2,0.2c0.6,0.1,1.2,0.1,1.2,0.1c-0.8,0.5-1.9,0.2-2,1.1
						c1.2,0.1,1.7-1.3,2.6-0.7c-0.8,0.9-1.6,1.2-0.5,1.4c-0.5,0.3-0.9,0.4-1.3,0.3c0.9,0.2,1,1.3,2.2,0.9c-0.9,1.2,1.3,1.4-0.6,2.6
						c0.5-0.1,2-0.1,2.4,0.2c-2.7,0.8,1.1,1.7-1.2,3.2c1.2-0.5,1.8-0.1,2.4,0.3c0.6,0.4,1.2,1,2.1,0.9c-0.2,0.1-0.5,0.3-0.5,0.1
						c0.4,0.6,0.1,1.3,0.1,2c1.4-1.4,2.5-1.1,3.7-1.7c-0.5,2-1.8,1.5-2.7,3.1c0.9-1.3,2.2-0.3,2.7-1.6c-0.1,1.3,0.1,0.8-0.5,2.3
						c1.4-2,0.8,0,2-1c0.2,1.5-1,2.1,0.3,2C208.9,36.7,207.7,37,207.7,37z M230.7,39.8C230.7,39.8,230.7,39.8,230.7,39.8
						c-0.2,0-0.3,0-0.4,0C230.4,39.9,230.5,39.8,230.7,39.8z M232.5,40.1c-0.2-0.1-0.5-0.1-0.7-0.2c0-0.5,0.2-1,0.3-0.9
						C231.9,39.3,232.3,39.7,232.5,40.1z M230.6,29.9c0.3-0.1,0.3,0.1,0.3,0.4c-0.1,0-0.3,0-0.5,0.1c0,0,0,0.1-0.1,0.2
						C230.5,30.3,230.5,30,230.6,29.9z"/>
					<path class="st0" d="M229.8,31.6c0,0-0.1,0.1-0.1,0.1c0,0.1,0.1,0.2,0.1,0.3c0.1-0.1,0.1-0.3,0.2-0.4
						C229.9,31.6,229.8,31.6,229.8,31.6z"/>
					<path class="st0" d="M380.6,58.9L380.6,58.9c0,0,0,0.1-0.1,0.1C380.5,59,380.5,58.9,380.6,58.9z"/>
					<polygon class="st0" points="256.8,45.3 256.8,45 256.6,45.3 					"/>
					<path class="st0" d="M381.8,69.5c-0.1,0.1-0.2,0.2-0.3,0.3C381.6,69.7,381.7,69.6,381.8,69.5z"/>
					<path class="st0" d="M383.3,73.1l-0.2,0.7C383.2,73.5,383.3,73.3,383.3,73.1z"/>
					<path class="st0" d="M383.8,76.2c0.2-0.1,0.4-0.1,0.6-0.2c0,0,0,0,0,0L383.8,76.2z"/>
					<path class="st0" d="M350.1,45.7c0,0-0.1,0-0.1,0C349.7,45.9,349.9,45.9,350.1,45.7z"/>
					<path class="st0" d="M364.2,49.2c-0.3,0.1-0.5,0.2-0.8,0.3C363.6,49.8,363.8,49.9,364.2,49.2z"/>
					<path class="st0" d="M334.7,43.6C334.7,43.5,334.7,43.5,334.7,43.6C334.7,43.5,334.6,43.5,334.7,43.6L334.7,43.6z"/>
					<path class="st0" d="M362.9,49.1c0.1,0.4,0.3,0.4,0.5,0.4C363.3,49.3,363.2,49.1,362.9,49.1z"/>
					<path class="st0" d="M386.3,88.6l0,0.1c0.1,0,0.2,0,0.2,0L386.3,88.6z"/>
					<path class="st0" d="M386.5,88.8l0.2,0.1C386.7,88.8,386.7,88.8,386.5,88.8z"/>
					<path class="st0" d="M387.1,89.2l-0.4-0.3C386.7,89,386.7,89.2,387.1,89.2z"/>
					<path class="st0" d="M386.3,84.7l-0.5,0.1C385.9,84.8,386.1,84.7,386.3,84.7z"/>
					<path class="st0" d="M385.9,83.6c-0.1,0.3-0.9,0.9-0.5,1.2l0.4,0C385,84.7,386.8,83.7,385.9,83.6z"/>
					<path class="st0" d="M390.6,76.8c0,0,0,0.3,0,0.6c0,0.3,0,0.6,0,0.6c0.5-0.3,1.1-0.8,1.4-0.4C393,75.8,390.9,78.3,390.6,76.8z"
						/>
					<path class="st0" d="M390.1,73.3c0.5,0.5,0.7-0.3,1-0.4C390.5,72.7,390.4,72.7,390.1,73.3z"/>
					<path class="st0" d="M376.2,52.3l0.9-0.9C376.7,51.2,376.8,51.8,376.2,52.3z"/>
					<polygon class="st0" points="368.4,54 368.2,54.9 369.1,54.1 					"/>
					<polygon class="st0" points="372,45.2 372.3,45.2 371.3,45.1 					"/>
					<path class="st0" d="M331.6,30.7l0,1.6C332,32.1,332.2,30.3,331.6,30.7z"/>
					<path class="st0" d="M313.6,31.8c-0.2-0.8-0.7-1.3-1-0.5C313,31.4,313.4,32,313.6,31.8z"/>
					<polygon class="st0" points="261.6,32.8 262,32.2 261.3,32.7 					"/>
				</g>
			</g>
		</g>
	</g>
</g>
<g>
	<g>
		<g>
			<g>
				<g>
					<path class="st0" d="M6.3,91.9C6.8,92,7.7,92,7.6,91.6l-1.6-0.3L6.3,91.9z"/>
					<path class="st0" d="M9.6,89.7c-0.8-0.5-2.1-1.1-3.7-1c1.5,0.6,0.9,0.6,2.7,1.2c0.2,0.4-0.6,0.6-1.2,0.5
						c0.4,0.2-0.4,0.5,0.6,0.8c1.3-0.4,1.4-0.9,0.4-1.6C8.9,89.5,9.3,89.7,9.6,89.7z"/>
					<path class="st0" d="M23.7,61.4l-0.3,0C23.6,61.5,23.6,61.4,23.7,61.4z"/>
					<path class="st0" d="M38.5,49.2c-0.1,0.1-0.1,0.3,0,0.4C38.6,49.5,38.6,49.3,38.5,49.2z"/>
					<path class="st0" d="M42.2,49.1c-0.1,0-0.1,0-0.2,0C42.1,49.2,42.2,49.3,42.2,49.1z"/>
					<path class="st0" d="M23.7,61.4l0.7-0.1C24.1,61,24,61.3,23.7,61.4z"/>
					<path class="st0" d="M6.2,84.6c0.1,0.1,0.2,0.3,0.4,0.4c-0.1-0.1-0.1-0.2-0.1-0.3C6.4,84.6,6.3,84.6,6.2,84.6z"/>
					<path class="st0" d="M20.1,69.2l-0.1,0.1c0.1,0.1,0.3,0.3,0.5,0.4L20.1,69.2z"/>
					<path class="st0" d="M17.5,75c0.1-0.1-1.2-0.7-1.7-1c0.5,0.3,0.7,0.5,0.8,0.7C16.8,74.8,17.1,74.9,17.5,75z"/>
					<path class="st0" d="M12.1,84.1l0.1,0.2C12.2,84.3,12.2,84.2,12.1,84.1z"/>
					<path class="st0" d="M22.8,65.4c0.2,0.1,0.3,0.2,0.4,0.2C23.1,65.6,23,65.5,22.8,65.4z"/>
					<path class="st0" d="M191.7,18.8c0.1,0.1,0.1,0.1,0.2,0.1C191.9,18.8,191.8,18.8,191.7,18.8z"/>
					<path class="st0" d="M200.7,15.3l0,0.1c0.3,0.1,0.5,0.1,0.8,0.2L200.7,15.3z"/>
					<path class="st0" d="M48.1,48.2C48.1,48.2,48.1,48.2,48.1,48.2C48,48.4,48.1,48.4,48.1,48.2z"/>
					<path class="st0" d="M101.9,42.3c-0.5-1.3,1.2-1.5,0.4-3C102.3,39.9,101.2,41.4,101.9,42.3z"/>
					<path class="st0" d="M6.4,84.4c0-0.1,0-0.2,0-0.3C6.4,84.2,6.4,84.3,6.4,84.4z"/>
					<path class="st0" d="M102.3,39.3L102.3,39.3l-0.1-0.2C102.2,39.2,102.2,39.3,102.3,39.3z"/>
					<path class="st0" d="M60.5,43.4c-0.1-0.2-0.2-0.4-0.3-0.6C60.3,43,60.4,43.2,60.5,43.4z"/>
					<path class="st0" d="M50.2,44.3l0.3,0.1C50.4,44.3,50.3,44.3,50.2,44.3z"/>
					<path class="st0" d="M65.4,40.5c0.2,0.1,0.2,0.3,0.4,0.1c0-0.1-0.1-0.1-0.1-0.2C65.6,40.6,65.6,40.7,65.4,40.5z"/>
					<path class="st0" d="M71,39.9c0-0.1-0.1-0.2-0.1-0.3c-0.1,0-0.1,0.1-0.2,0.1L71,39.9z"/>
					<path class="st0" d="M181.2,27.2c0.2,0.3,0.5,0.7,0.6,1.1C181.4,27.4,182,26.8,181.2,27.2z"/>
					<path class="st0" d="M7,84.7c-0.3-0.1-0.5-0.2-0.6-0.3c0,0.1,0,0.1,0,0.2C6.7,84.7,6.9,84.7,7,84.7z"/>
					<path class="st0" d="M64,29.5c0,0,0.3,0,0.5,0c0.3,0,0.5,0,0.5,0C64.7,29.5,64.3,29.5,64,29.5z"/>
					<path class="st0" d="M141.6,33.2l0.2-0.2C141.8,33,141.7,33.1,141.6,33.2z"/>
					<path class="st0" d="M67.9,29c0.2,0.5,0.4,0.7,0.7,0.9c0-0.1,0.1-0.2,0.1-0.4L67.9,29z"/>
					<path class="st0" d="M181.8,28.3L181.8,28.3L181.8,28.3z"/>
					<path class="st0" d="M185,23.2c-0.6,0.3,0.6,1.7,1,2.7c-0.5,0.9-1-1-1.7-1.7c-0.2,0.7,0.1,2.4-0.3,2.5
						c-0.2-0.3-0.3-0.3-0.3-0.7c0.1,1.6-1.5,0.7-1.6,2.7c-0.1-0.1-0.2-0.3-0.2-0.4c0.4,0.8,0.8,1.7,1,2.3c-0.3,0.2-0.3,1.3-0.8,0.2
						c0.2,0,0.1-0.5,0.1-0.9l-0.2,0.6c-0.9-1.5,0.3-0.7-0.1-2c-0.5,0.8-0.9,2.4-1.6,2.1c-0.6-1.6,1.1-0.9-0.1-2.2l1,0.3
						c-1.5-2.3,0.5,0-0.9-2.5c-1.2-0.1-0.9,1.2-2.1,1c0,1,0.5,1.3,0.5,2.3c-1.2,2.1-2.3-3.8-3-1.3c0,1.2,0.3,3.3-0.8,2.4l-0.1-1.9
						c-1.2,0.1-0.1,2.8-1.6,1.8c0.1-0.8,0.8-0.8,0.6-1c-1.1-1.3-0.3,1.2-0.9,1.3l-0.5-1.6c-1.2,0.5-2.3,2-3.6,2.6
						c0-0.5,0.1-1.1-0.3-1.5c-1.6,1.2-3.8,0.4-5.6-0.3l-0.4,1.5c-0.2,0-0.4-0.6-0.3-0.9c-0.7-0.5,0.1,0.9-0.1,1.5
						c-0.4,0.2-0.6-0.8-0.4-1.2c-1,1.4-3,3.1-4.4,1.7l0.2-0.5c-1-0.5-0.8,3.1-1.8,1.8l0.1-0.3c-2.1-0.4-4.4,1.1-6.1-1
						c-0.2,2.1-2.1-0.8-2.1,2.1c-1.3-1.4-1-1.9-2.7-2.8c-0.4-0.1-0.6,1.9-1.1,2.2l-0.1-1.5l-0.7,1.6l-0.5-1.8l-0.5,0.4
						c0.2,0.1,0.5,0.7,0.4,1.1c-0.8,0.7-2-1-2-1.8l-1.9,1.3c0-0.6,0.4-0.8,0.6-1.2c-1,1.6-0.2-1.6-1.1-0.2c0.1,0.4-0.1,0.9-0.1,1.2
						c-0.5-0.9-1.5-0.9-2.3-0.6l0.2-1.1c-1.4-0.3-3,0.4-4.6,0.4c0.6,0.5,0.4,2.4-0.1,2.5l-0.1-1.6c-0.3,1,0.5,0.6-0.2,1.8
						c-0.6-0.2-0.3-1.9,0-2.4l-0.8,0.5c0-0.5,0.2-0.7,0.2-1.4c-0.3,1-1.2-1.7-1.7,0l0-0.5c-1.6-0.1-2.4,0.4-3.7,0.4
						c-0.1,1.4-0.6,1.1-1.1,2.2c-0.9-0.5-1.9-1.7-3.1-1.7c-0.9,0.6-0.3,1.2-0.8,2c0-1.3-1.1-1.3-0.4-2.1c-1.4,0.1-1.8,0.1-3.7,1
						c0.1,0.5,0.3,0.8,0.2,1.2c-0.3,0.2-0.7-0.6-0.6-1.2l0.1-0.1c-2.2,1.7-4.3-4.2-6.1-1.7l0.1-0.1l-1.8,1.2
						c-0.7-0.3,0.6-0.9,0.1-1.8c-2,2-2.8-0.6-4.5,0.7c-0.8-3.9-4.1-0.1-5.5-2.6l0,0.9c-0.5,0.8-0.5-0.5-0.7-0.8
						c0,0.7,0.4,0.8,0.1,1.3c-3.5,0.8-7.1-1.8-10.7-2.7c-1.3-0.3-0.9,4.6-2.5,2.4l0.5-1.6c-2.7,2-5.5-0.1-8.1,1.7
						c0.1-0.4,0.1-0.9,0.4-0.9c-0.6-1.2-2.1,0-2,1c-0.4-0.1-0.1-0.9-0.4-1.4c-0.6-0.7-1.3,1.6-1.7,0.5c-0.1-0.2,0.1-0.4,0.2-0.5
						c-0.3,0.6-1.7,0-1.3,1.3c-1.1-0.6-1.8,0.8-2.7,0.1c-0.3,1.6-1.8-0.5-1.7,1.6c-0.2-2.3-2-1.6-2.5-0.4c0.1-0.7-0.6-0.6-0.5-1.6
						c-0.7,0.1-1.3,0.7-1,1.8c-1.8-2.5-2.2,2.6-3.6-0.7c-1,0.8-1.9,1.5-2.7,2.2c-0.9,0.6-1.8,1.2-2.6,1.7c-0.5-2.2,2-0.8,1.4-3
						c-1.6,1.4-2.1,3.5-4,3.5c-0.5-0.2,0-1,0-1.4c-0.8,0.7-1.6,0.9-2.5,1.2c-0.8,0.3-1.6,0.6-2.2,1.5c-0.1-0.2,0-0.5,0.1-0.7
						c-0.3,0.2-0.8,0-0.4,0.9l0.2-0.4c1,1.2-0.1,3.3,0.2,4.1c-0.6-2.9-1.7-0.1-2.4-3.8c-0.1,0.3-0.2,0.8,0.1,1.4
						c-0.4-0.1-0.6-0.4-0.6-1.2c-0.9,1,0,1.8-1,2.2c-0.2-0.5-0.1-0.7-0.2-1.3c-0.1,1.1-0.2,2.2-1.1,2.2c-0.1-0.3-0.3-0.6-0.1-0.7
						c-1.3,0.8-1.1,3.4-3,3.4c-0.6-2.1-0.8-0.4-1.8-1.9l-0.5,0.9l0.8,0.6c-0.7,0.4-0.6,1.9-1.5,1.7l0.1-1c0,0-0.3,0.3-0.5,0.5
						c-0.3,0.3-0.5,0.5-0.5,0.5s0.3,0,0.5,0.1c0.3,0,0.5,0.1,0.5,0.1c-0.1,1.2,1.3,1.9,0.2,2c0.1-0.3-0.6,0.4-1.6-0.3l0,0
						c0,0.7,0.1,1.4-0.7,1.4c-0.5-0.4-1.1-1.8-1.4-2c0.6,1.5-1.2,1.4-0.6,3.1c-0.1-0.4-0.7-1.2-0.9-1.3l0.5,1.2
						c-0.5-0.1-0.7-0.2-1.1-0.9c-1,0.5,1.7,1.7,0.1,1.6c0-0.1-0.1-0.3-0.1-0.5c-1.4,0.4-1.4,2.2-2.7,2.5c-1.5-1.2,0.5-1-0.9-1.9
						c-0.6,0.7-0.8,1.7-1.1,2.7c-0.3,1-0.7,1.8-1.4,2.2l0.4-0.1c1.8,2-1.8,0-1.4,1.5c0-0.3-0.9-1.2-0.7-0.9c-1.1,0.5-1.1,2.2-1.5,4
						l-0.4-0.6c-0.9,0.1-1.4,1.2-2,1.6c0.4,0.6,0.1,0.8,1,1.2c-1.1-0.1-1.7,0.1-2.1,0.5c-0.3,0.4-0.4,1-0.4,1.6
						c-0.1,1.2,0,2.3-1.9,2.4c0.1-0.2-0.2-0.8-0.3-0.6L14.2,66c1.1,0.5,0.7,0.2,1.7,0.3c0.5,0.5,0.7,1.2,0.5,1.5
						c-0.3-1-1.6-0.9-2.4-0.9c0.3,0.1,0.6,0.4,1,0.6c-2.2-0.2,2,1.2,0.2,1.6l-0.5-0.3c0.1,0.5,0.6,1.2,0.3,1.6
						c-1.3-0.4-0.4-0.7-1.3-1.2c-0.2,0.6,1.7,2.3,0.2,2.2c-0.2-0.4,0-0.8-0.2-1.2c-1.7-0.1-1.4,0.2-1.8,0.5l0.1,0l-1.1,0.8l0.5-0.1
						c2.9,2.2-0.1,1.8,1.6,3.7c-1.6-1.8-1.1-0.6-2.5-1.3c-0.5,0.1-1.1,0.4-1.4,0.1c1,0.9-1.2,0.5,0.2,1.9c-0.5-0.1-0.2,0.5-1.4,0
						c0.1,0.8,0.9,0.1,1.4,0.4c0.6,0.8-0.1,1.2-0.7,1.8c-0.6,0.5-1.2,1.2-0.3,2.3c0.5,1.5,2.2,2.2,2.7,3.5c-0.8,0.2-1.7-0.7-1.7-0.7
						c-0.8,0.5-0.8,1-0.4,1.7c-0.4-0.2-0.8-0.1-1.3,0c0,0.5,1.7,0.6,0.9,1.2c-0.5-0.2-1.4-0.5-1.9-0.8C7,85.6,7.8,86.4,8.1,87
						c-0.9,0.1-1.2-0.5-1.7-0.9c0.3,0.8,0.5,1.9,1.8,2.3c0,0,0.1-0.1,0.3-0.2c0.1-0.1,0.3-0.2,0.3-0.2c0,0.3-1.2,0-1.4-0.2
						c-1-0.7,0.6-0.8,1.1-0.8l0.2,0.5c2.9-0.1-0.2-1.8,0.1-2.6l2,0.7c0,0-0.4-0.3-0.8-0.6c-0.4-0.3-0.8-0.6-0.8-0.6
						c0.6-0.1,1.7,0,2,0.5c1.1-0.4-0.6-0.7,0.6-0.9c0.2,0,0.3,0,0.3,0.1l-0.5-0.7c0.4,0.2,1.5,0.2,1.1,0.5c1.4-0.7-1.2-2,0.5-2
						l0.1,0.1c-0.3-1.6-1.4-0.5-2.9-2.1c0,0,1,0.1,1.9,0.1c1,0.1,1.9,0.2,1.9,0.2l-1.4-0.6c0.1-0.1,0.3-0.4,0.9-0.2
						c-0.8-0.8-0.7-0.1-1.5-0.7c1.5-0.3,0-2.1,2.4-1.5c-1-0.6-1.1,0.4-1.6-0.6c2.5,0.7-0.1-1,1.2-1.2c1.2,0.7,0.3,1,1.7,0.8
						c-2-1.2,0.9-1,0.7-1.6c-1.7-0.7-0.2-1.4-0.4-2.5c0.5,0.3,1.7-1.1,2.6-1.6l0.3,0.2c-1.6-1-0.8-1.6-0.8-2.4
						c0.9,0.6,1.3,0.9,1.5,1.4l0.3-0.5c-0.4-0.4-0.6-0.7-0.6-1.2l1.1,0.8c0.3-0.7-0.6-2.2,0.8-2.6c-1-0.8-3.5-1.2-3.6-2.6
						c0.6,0.3,1.6,1,1.7,1.4c0-0.1-0.3-0.6,0.1-0.6l0.7,1c0.7-0.1-0.7-0.7-0.4-1c0.8,0.6,0.7,0.2,1.4,0.6c0,0.1-0.5,0.1-0.3,0.4
						c0.4-0.3,1.1-0.4,1.9-0.1c-0.5-0.3-1.1-0.7-1-1.1c0.4-0.7,1.1,0.5,1.8,0.4c-0.4-0.6,0.4-0.5-0.8-1.4c0.1-0.2,0.7,0.2,1.1,0.4
						c-0.3-0.7,1-1.6-0.5-2.2l-0.1,0c0,0,0-0.1,0-0.1l0,0l0,0c-0.2-1,0.5-1.4,1.2-1.8c0.7-0.4,1.4-0.6,1.7-1.3l0.4,0.3
						c0.1-1,1-1.5,0.6-2.7c0.2-0.2,1.1,0.2,1.4,0.7c0.2-0.7-0.2-1.1,1.1-1.2c0.2,1,0.7,0.4,0,0.9c0.9-0.2,1.5,0.2,1.2-1.4
						c0.6,1.1,1.5,0.8,1.5,0.3l-1-0.3c0.2-0.4,0.5-0.6,0.9-0.7l0.9,1.4c1.3,0.3,1.2-0.9,1.3-1.8c0.1-0.9,0.3-1.7,1.8-0.8
						c-0.4-1.2-1.2-0.1-1.7-1.4c0.7-0.3,2.7,1.2,2.9,1.1c1.3,0.2-0.6-2.5,0.6-2.6c-0.4-0.4-1.4-1.7-1-2.6c0.8-0.2,2.1,1.6,2,2.3
						c-0.1,0.1-0.3,0-0.4-0.2c-0.1,0.3-0.2,0.7,0.4,1.1l-0.2-0.6c0.6,0.3,1.5-0.2,1.8,0.7c0.2-0.8-0.3-1-0.8-1
						c1.3,0.3,1.3-0.8,2.4-0.7c-0.3-0.2-0.8-0.8-0.6-0.8c1.6,0,0-1.3,0.8-2c0.9,0.5,0.8,2,1.3,0.9c0.8,0.3,0.8,1.3,0.8,1.9
						c0.3-1.4,1.8,0,2.3,0l-0.2,0.6c0.1-0.4,0.3-0.5,0.5-0.5l-0.7-1c0.3,0.1,0.5,0,0.7,0.4c-0.1-0.8-1-1.7-1-2.9
						c0.6,0.4,0.8-1,1.5,0.4c-1.3-0.1,0.7,1.4,0,2c0.1-0.2,0.3-0.3,0.6-0.2c0.1,0.1,0.1,0.3,0.1,0.4c1.5,0.9-0.3-1.8,0.8-2.2
						c0.2,0.9,0.9,1.5,1,1.2c-0.4,0.2-0.8-1.3-0.6-2.1c0.9,0.4,0.6-0.8,1-0.8l-0.5-0.2c-0.2-0.9,0.2-0.9,0.6-1.3
						c0.3,0.6-0.3,0.6,0,0.8c0-1.7,1.7,1.1,2.2-0.2c0.5,0.5,0.6,1.6,1,1.9c0.5-1.4,1.3,0.9,1.8-0.3c-0.6-1.1-0.6-0.8-0.3-2.1
						c0,0-0.3,0.3-0.6,0.6c-0.3,0.3-0.6,0.6-0.6,0.6l0.4-2c-0.5,0.1-0.7,1-1,0.9c0.2-1.1,0.2-0.8-0.3-1.7c1.1,1.5,0.9-1.4,2-0.4
						l0.8,2.8c1.4,1,1.5-2,3.1-1.6L58.2,42c-0.1-1.2,0.8-0.4,1.2-0.9c0.2,1,0.5,1.3,0.9,1.8c-0.2-0.7,1-0.1,0.8-2.1l0.9,1.2
						c1.2,0.3,0.8-3,2-2.9c-0.2,1.1,0.5,1.7-0.2,2.6c0.4,0,0.7,0.1,0.6-0.6c0.3,0.6,0.8-1.5,1.3-0.6c0.1-0.5,0-1.5,0.4-1.5
						c0.1,0.2,0.1,0.5,0.1,0.5c-0.1-0.5,0.6-0.7,0.1-1.8c0.8,1.5,1.6,1.3,2.4,1.1c0.8-0.2,1.6-0.4,2.2,0.8c0.8-0.4,1.8-0.8,2.5-0.9
						c0,0.3,0,0.5-0.1,0.4c1.1,0.8,0.5-2.9,1.7-1.9c0.7,1.6-0.6,0.9-0.2,1.5c0.3,3.2,1.4-0.5,2.3,1.4l-0.2,0.2
						c0.6,1.1,1.4-1.3,2.5-1.1c0,0,0,0.3,0,0.5c0.7-1.7,2-2.2,2.9-2.7c-0.3,1.3-0.4,0.7-0.3,2c0.4-0.2-0.1-2.1,0.8-2.4
						c0.3,0.7,0.9,1.3,1,2.7l-0.8,0.1c0.4,1.8,1-0.1,1.5,0.3l-0.1,0.8c1.2-0.2,1.3-2.2,2.7-2l-0.1-0.6c0.8-1.9,0.6,1.1,1.4-0.3
						l0.1,2c0.5-0.5,1.8-1.8,2.7-2.2c-0.6,1.4-1.6,2.1-2.3,3c0.5,0,1.6-0.1,1.9-1c-0.2,0.2-0.5,0.6-0.7,0.3c0.7-1.5,1.5-2.2,2.5-2.1
						c-0.4,3.8,2.5,1.1,2.9,4.1c1.8-1.3,3.3,0.9,5.3,0.8c-0.4-3,0.6,0,0.7-3.1c0.5-0.2,0.7-0.1,0.7,0.1l1.2,1.9
						c0.3,0.9-0.5,0.6-0.5,1.3c1,0.3,0.3,1.3,0.9,2.2c0-1.1,0.5-1.5,1-1.1l-0.7-1.5c1.6-1.5,1,2.7,2.6,1.2l-0.5,0.9
						c0.8-0.5,2.7,0.3,3.7-2.1c0.1,0.4,0.2,1.2-0.2,1.4c1.7,0.5,4.2-2.2,5.5-0.6l-0.2,0.7c0.4-0.2,0.7-1.3,1.1-0.6
						c0,0.3-0.2,0.7-0.1,0.8c0.2-0.2,1-1.2,1.4-0.8l-0.5,0.8c1.7,1.1,2.9-1.8,4.4-2.2c-0.2,2.2,1.2,3,1.8,3.4l0,0.3
						c2.1,0.4,3.6-1.6,5.6-2.4c1.1,2.5,4,1.2,5.9,2.5c-0.3-0.4,0.1-1.7,0.4-1.9c0.4,0.5,1.3-1.5,1.2,0.5l-0.2,0c0.3,2,1.3,1.5,2,1.5
						l0.1-2.6c0.9,1.9,2.2,1.6,3.3,1.1c1.1-0.4,2.1-0.9,2.7,0.8c0.4-0.7,1-0.7,1.4-1.4l0,1.4c1.3,0.3,1.9,0.4,3.5,0l-0.3,1
						c0.9,0,0.9-4.1,1.7-4.3L151,44c1.5-0.1,3.3,1.6,4.6-0.5c0,0.3,0,0.9-0.2,1c0.7,0,3,1.1,2.4-1.7c0.2,1.9,1.6,0,2.3-0.9l0,1.4
						c0.5-1.9,0.4-2.3,1.3-3c0.3,0.2,0.3,1.1,0,0.8c0.9,0.6,0.4-1.4,1.4-0.8l-0.2,0.9c0.8,0,0.7-0.5,0.9-1.6
						c0.4-0.6,1.5,0.1,1.8,1.4c0-0.8,0.3-1.9,0.8-1.6c0.1,0.5,0,0.8,0,0.9c1.5,0.7,1.7-1.9,2.8-0.7c0.1,0.5,0.2,0.7,0.3,0.8
						c-1,0.2-1.9,0.2-1.8,0.1c0.2,1.3,1.1,1.3,0.7,3.2c0.5-1.1,1.3-3.4,2.2-2.9c0.1,0.1,0.1,0.2,0.2,0.4l-0.1,0.2
						c0.2,0.1,0.4-0.1,0.5-0.3c0.3,0.2,0.5,0.3,0.8,0.2c0.3,1,1.1,0.4,1.5,0.3c-0.3-1.4,0.3-1.3-0.5-2.3c0.1,0.1,0,0.2-0.3,0.3
						c-0.1,0.1-0.1,0.1-0.1,0.2c0,0,0-0.1,0-0.1c-0.3,0.1-0.6,0.2-1,0.3c0.2-0.8,0.4-1.4,1-0.7c0-0.9,0.1-1.9,0.1-2.3
						c0.9,1.8,2.3,2.6,2.7,3.8c1.1-1,2.9-1.2,3.1-3.9c0.3-0.4,0.6,0.6,0.8,1c-0.1,0.3-0.4,0.3-0.4,0.7c0.6-0.8,2.1-0.8,1.8-2.6
						c1.1,0.5-0.1,1.8,1.1,1.1l0,0.6c1.7,1,2.4-0.4,3.1-1.8c0.7-1.4,1.3-2.7,3.4-1.6c-0.3-0.1-0.4-0.2-0.6-0.4
						c1.9,0.1,3.3-1.2,4.6-2.4c1.3-1.2,2.5-2.4,4.7-2.7c1.1-0.3,0.3-1.3,0-2.3l1.3,0.8c0,0-0.2-0.5-0.3-1c-0.2-0.5-0.3-0.9-0.3-0.9
						c-0.1-0.9,1-0.8,2-0.9c1-0.1,2-0.4,1.4-1.9l-1-0.3c0.5-0.5,0.4-2.1,1.4-1.5c-0.1-0.1-0.9-0.6-0.3-0.6l0.7,0.3
						c0,0-0.1-0.5-0.3-1c-0.2-0.5-0.3-1-0.3-1c0.5-0.5,1.2-0.2,1.9,0c0.7,0.2,1.4,0.3,1.7-0.6c-0.1-0.8-1.7-2.6-2.3-2.4
						c-0.1,0.3-0.6,0.6-1.4,0.4l-0.3-0.6c-1.1-0.3-2.2-0.7-3.3-0.9c-1.1-0.2-2.1-0.2-3,0.1c0,0,0.3,0.3,0.6,0.5
						c0.3,0.3,0.6,0.6,0.6,0.6l-1.1-0.1l0.1-0.6c-1.1,0-0.3,0.5,0.3,0.9c-0.6-0.1-1-0.2-1.3-0.2c0,0,0.5,0.3,0.9,0.7
						c0.5,0.4,0.9,0.7,0.9,0.7c-0.9-0.3-1.5-1-2.2-0.8c0.8,0.7,2,0.5,2.4,1.3c-1.1-0.1-1.8-0.6-1.2,0.2c-0.6-0.2-0.9-0.5-1-0.7
						c0.5,0.6-0.1,0.9,0.8,1.7c-1.3-0.3-0.4,1.3-2.2,0c0.4,0.4,1.1,1.5,0.9,1.8c-1.7-2.1-0.9,0.9-3-1c0.8,0.9,0.7,1.4,0.5,1.8
						c-0.2,0.4-0.6,0.7-0.4,1.5c-0.1-0.2-0.3-0.5-0.2-0.5c-0.5,0.2-1-0.3-1.5-0.4c1.2,1.5,1,2.3,1.4,3.5c-1.6-1.2-1.1-2-2.4-3.4
						c1,1.2,0.2,1.8,1.1,2.8c-1-0.7-0.6-0.2-1.7-1.5c1.3,2.1-0.1,0.6,0.4,2c-1.2-0.7-1.3-1.9-1.5-0.9C184.9,24.3,185,23.2,185,23.2z
						 M168.6,32.5C168.6,32.4,168.6,32.4,168.6,32.5c0.2-0.1,0.3-0.1,0.4-0.2C168.9,32.3,168.8,32.4,168.6,32.5z M166.9,32.8
						c0.2,0,0.5,0,0.7-0.1c0.1,0.5,0.2,1,0,1C167.7,33.3,167.3,33.1,166.9,32.8z M172.3,41.7c-0.2,0.2-0.4,0-0.5-0.3
						c0.1,0,0.3-0.1,0.5-0.3c0,0,0-0.1,0-0.2C172.3,41.2,172.4,41.5,172.3,41.7z"/>
					<path class="st0" d="M172.5,39.8c0,0,0-0.1,0.1-0.1c-0.1-0.1-0.2-0.2-0.2-0.3c0,0.2,0,0.3,0,0.5
						C172.4,39.8,172.4,39.8,172.5,39.8z"/>
					<path class="st0" d="M23.4,61.4L23.4,61.4c0,0-0.1,0-0.2-0.1C23.3,61.4,23.3,61.4,23.4,61.4z"/>
					<polygon class="st0" points="143.5,32.5 143.5,32.8 143.6,32.5 					"/>
					<path class="st0" d="M14.1,66.9c-0.1,0-0.2-0.1-0.4-0.1C13.8,66.8,13.9,66.8,14.1,66.9z"/>
					<path class="st0" d="M11.9,70.6l-0.7,0.4C11.5,70.8,11.7,70.7,11.9,70.6z"/>
					<path class="st0" d="M9.9,73.4c0.2,0.1,0.4,0.2,0.5,0.3c0,0,0,0,0,0L9.9,73.4z"/>
					<path class="st0" d="M46.8,35.6c0,0,0.1-0.1,0.1-0.1C47.1,35.1,46.9,35.3,46.8,35.6z"/>
					<path class="st0" d="M34.1,45.7c0-0.3,0-0.6,0-0.8C33.9,45,33.7,45.1,34.1,45.7z"/>
					<path class="st0" d="M63.9,29.5C63.9,29.5,63.9,29.5,63.9,29.5c0,0,0.1,0,0.1,0L63.9,29.5z"/>
					<path class="st0" d="M34.8,44.5c-0.4-0.1-0.5,0.1-0.6,0.4C34.4,44.8,34.7,44.8,34.8,44.5z"/>
					<path class="st0" d="M5.6,87.6l-0.1,0.2c0.1,0,0.2,0,0.2,0L5.6,87.6z"/>
					<path class="st0" d="M5.8,87.8L5.9,88C5.9,87.9,5.9,87.8,5.8,87.8z"/>
					<path class="st0" d="M6.2,88.4L5.9,88C5.9,88.1,5.9,88.3,6.2,88.4z"/>
					<path class="st0" d="M7,83.2l-0.5-0.2C6.6,83.1,6.8,83.2,7,83.2z"/>
					<path class="st0" d="M7.2,81.8c-0.2,0.3-1.2,0.6-1,1.1l0.4,0.1C5.8,82.7,7.9,82.3,7.2,81.8z"/>
					<path class="st0" d="M14.7,78.3c0,0-0.2,0.2-0.4,0.4C14.1,79,14,79.2,14,79.2c0.6,0,1.3,0,1.3,0.5C17.2,78.9,14,79.5,14.7,78.3
						z"/>
					<path class="st0" d="M16.5,75.6c0,0.6,0.7,0.3,1,0.4C17.2,75.6,17.1,75.4,16.5,75.6z"/>
					<path class="st0" d="M29,56.8l0.9,0.9C30,57.3,29.5,57.4,29,56.8z"/>
					<polygon class="st0" points="27.9,48.9 27,48.6 27.6,49.6 					"/>
					<polygon class="st0" points="35.7,54.2 35.7,54.5 35.9,53.7 					"/>
					<path class="st0" d="M70.1,41.2l-0.3-1.6C69.5,39.9,69.7,41.7,70.1,41.2z"/>
					<path class="st0" d="M86.8,39.1c0.2,0.8,0.6,1.3,0.9,0.6C87.4,39.6,87,38.9,86.8,39.1z"/>
					<polygon class="st0" points="139.1,45.2 138.8,45.7 139.4,45.3 					"/>
				</g>
			</g>
		</g>
	</g>
</g>
</svg>
