<?xml version="1.0" encoding="utf-8"?>
<!-- Generator: Adobe Illustrator 19.2.1, SVG Export Plug-In . SVG Version: 6.00 Build 0)  -->
<svg version="1.1" id="Layer_1" xmlns="http://www.w3.org/2000/svg" xmlns:xlink="http://www.w3.org/1999/xlink" x="0px" y="0px"
	 viewBox="0 0 400 100" style="enable-background:new 0 0 400 100;" xml:space="preserve">
<style type="text/css">
	.st0{fill:#202020;}
</style>
<g>
	<g>
		<g>
			<g>
				<g>
					<path class="st0" d="M394.3,15.3c-0.4-0.1-1.4-0.1-1.2,0.2l1.6,0.3L394.3,15.3z"/>
					<path class="st0" d="M391.1,17.4c0.8,0.5,2.1,1.1,3.7,1c-1.5-0.6-0.9-0.6-2.7-1.2c-0.2-0.4,0.6-0.6,1.2-0.5
						c-0.4-0.2,0.4-0.5-0.6-0.8c-1.3,0.4-1.4,0.9-0.4,1.6C391.8,17.7,391.4,17.5,391.1,17.4z"/>
					<path class="st0" d="M377,45.8l0.3,0C377.1,45.7,377,45.7,377,45.8z"/>
					<path class="st0" d="M362.2,58c0.1-0.1,0.1-0.3,0-0.4C362.1,57.7,362.1,57.9,362.2,58z"/>
					<path class="st0" d="M358.5,58c0.1,0,0.1,0,0.2,0C358.5,57.9,358.4,57.9,358.5,58z"/>
					<path class="st0" d="M377,45.8l-0.7,0.1C376.6,46.2,376.7,45.9,377,45.8z"/>
					<path class="st0" d="M394.4,22.6c-0.1-0.1-0.2-0.3-0.4-0.4c0.1,0.1,0.1,0.2,0.1,0.3C394.3,22.6,394.4,22.6,394.4,22.6z"/>
					<path class="st0" d="M380.5,38l0.1-0.1c-0.1-0.1-0.3-0.3-0.5-0.4L380.5,38z"/>
					<path class="st0" d="M383.1,32.2c-0.1,0.1,1.2,0.7,1.7,1c-0.5-0.3-0.7-0.5-0.8-0.7C383.8,32.4,383.5,32.3,383.1,32.2z"/>
					<path class="st0" d="M388.5,23.1l-0.1-0.2C388.4,22.9,388.5,23,388.5,23.1z"/>
					<path class="st0" d="M377.9,41.7c-0.2-0.1-0.3-0.2-0.4-0.2C377.6,41.6,377.7,41.7,377.9,41.7z"/>
					<path class="st0" d="M208.9,88.4c-0.1-0.1-0.1-0.1-0.2-0.1C208.8,88.4,208.9,88.4,208.9,88.4z"/>
					<path class="st0" d="M200,91.9l0-0.1c-0.3-0.1-0.5-0.1-0.8-0.2L200,91.9z"/>
					<path class="st0" d="M352.5,58.9C352.5,59,352.5,59,352.5,58.9C352.6,58.8,352.6,58.8,352.5,58.9z"/>
					<path class="st0" d="M298.7,64.9c0.5,1.3-1.2,1.5-0.4,3C298.3,67.3,299.5,65.8,298.7,64.9z"/>
					<path class="st0" d="M394.2,22.8c0,0.1,0,0.2,0,0.3C394.3,22.9,394.3,22.8,394.2,22.8z"/>
					<path class="st0" d="M298.4,67.9L298.4,67.9l0.1,0.2C298.4,68,298.4,67.9,298.4,67.9z"/>
					<path class="st0" d="M340.2,63.8c0.1,0.2,0.2,0.4,0.3,0.6C340.4,64.2,340.3,64,340.2,63.8z"/>
					<path class="st0" d="M350.4,62.9l-0.3-0.1C350.3,62.8,350.3,62.9,350.4,62.9z"/>
					<path class="st0" d="M335.3,66.6c-0.2-0.1-0.2-0.3-0.4-0.1c0,0.1,0.1,0.1,0.1,0.2C335,66.6,335.1,66.5,335.3,66.6z"/>
					<path class="st0" d="M329.7,67.3c0,0.1,0.1,0.2,0.1,0.3c0.1,0,0.1-0.1,0.2-0.1L329.7,67.3z"/>
					<path class="st0" d="M219.5,80c-0.2-0.3-0.5-0.7-0.6-1.1C219.2,79.8,218.7,80.4,219.5,80z"/>
					<path class="st0" d="M393.7,22.5c0.3,0.1,0.5,0.2,0.6,0.3c0-0.1,0-0.1,0-0.2C394,22.5,393.8,22.5,393.7,22.5z"/>
					<path class="st0" d="M336.7,77.7c0,0-0.3,0-0.5,0c-0.3,0-0.5,0-0.5,0C336,77.7,336.3,77.7,336.7,77.7z"/>
					<path class="st0" d="M259,74l-0.2,0.2C258.9,74.2,259,74.1,259,74z"/>
					<path class="st0" d="M332.8,78.2c-0.2-0.5-0.4-0.7-0.7-0.9c0,0.1-0.1,0.2-0.1,0.4L332.8,78.2z"/>
					<path class="st0" d="M218.8,78.9L218.8,78.9L218.8,78.9z"/>
					<path class="st0" d="M215.7,84c0.6-0.3-0.6-1.7-1-2.7c0.5-0.9,1,1,1.7,1.7c0.2-0.7-0.1-2.4,0.3-2.5c0.2,0.3,0.3,0.3,0.3,0.7
						c-0.1-1.6,1.5-0.7,1.6-2.7c0.1,0.1,0.2,0.3,0.2,0.4c-0.4-0.8-0.8-1.7-1-2.3c0.3-0.2,0.3-1.3,0.8-0.2c-0.2,0-0.1,0.5-0.1,0.9
						l0.2-0.6c0.9,1.5-0.3,0.7,0.1,2c0.5-0.8,0.9-2.4,1.6-2.1c0.6,1.6-1.1,0.9,0.1,2.2l-1-0.3c1.5,2.3-0.5,0,0.9,2.5
						c1.2,0.1,0.9-1.2,2.1-1c0-1-0.5-1.3-0.5-2.3c1.2-2.1,2.3,3.8,3,1.3c0-1.2-0.3-3.3,0.8-2.4l0.1,1.9c1.2-0.1,0.1-2.8,1.6-1.8
						c-0.1,0.8-0.8,0.8-0.6,1c1.1,1.3,0.3-1.2,0.9-1.3l0.5,1.6c1.2-0.5,2.3-2,3.6-2.6c0,0.5-0.1,1.1,0.3,1.5
						c1.6-1.2,3.8-0.4,5.6,0.3l0.4-1.5c0.2,0,0.4,0.6,0.3,0.9c0.7,0.5-0.1-0.9,0.1-1.5c0.4-0.2,0.6,0.8,0.4,1.2c1-1.4,3-3.1,4.4-1.7
						l-0.2,0.5c1,0.5,0.8-3.1,1.8-1.8l-0.1,0.3c2.1,0.4,4.4-1.1,6.1,1c0.2-2.1,2.1,0.8,2.1-2.1c1.3,1.4,1,1.9,2.7,2.8
						c0.4,0.1,0.6-1.9,1.1-2.2l0.1,1.5l0.7-1.6l0.5,1.8l0.5-0.4c-0.2-0.1-0.5-0.7-0.4-1.1c0.8-0.7,2,1,2,1.8l1.9-1.3
						c0,0.6-0.4,0.8-0.6,1.2c1-1.6,0.2,1.6,1.1,0.2c-0.1-0.4,0.1-0.9,0.1-1.2c0.5,0.9,1.5,0.9,2.3,0.6l-0.2,1.1
						c1.4,0.3,3-0.4,4.6-0.4c-0.6-0.5-0.4-2.4,0.1-2.5l0.1,1.6c0.3-1-0.5-0.6,0.2-1.8c0.6,0.2,0.3,1.9,0,2.4l0.8-0.5
						c0,0.5-0.2,0.7-0.2,1.4c0.3-1,1.2,1.7,1.7,0l0,0.5c1.6,0.1,2.4-0.4,3.7-0.4c0.1-1.4,0.6-1.1,1.1-2.2c0.9,0.5,1.9,1.7,3.1,1.7
						c0.9-0.6,0.3-1.2,0.8-2c0,1.3,1.1,1.3,0.4,2.1c1.4-0.1,1.8-0.1,3.7-1c-0.1-0.5-0.3-0.8-0.2-1.2c0.3-0.2,0.7,0.6,0.6,1.2
						l-0.1,0.1c2.2-1.7,4.3,4.2,6.1,1.7l-0.1,0.1l1.8-1.2c0.7,0.3-0.6,0.9-0.1,1.8c2-2,2.8,0.6,4.5-0.7c0.8,3.9,4.1,0.1,5.5,2.6
						l0-0.9c0.5-0.8,0.5,0.5,0.7,0.8c0-0.7-0.4-0.8-0.1-1.3c3.5-0.8,7.1,1.8,10.7,2.7c1.3,0.3,0.9-4.6,2.5-2.4l-0.5,1.6
						c2.7-2,5.5,0.1,8.1-1.7c-0.1,0.4-0.1,0.9-0.4,0.9c0.6,1.2,2.1,0,2-1c0.4,0.1,0.1,0.9,0.4,1.4c0.6,0.7,1.3-1.6,1.7-0.5
						c0.1,0.2-0.1,0.4-0.2,0.5c0.3-0.6,1.7,0,1.3-1.3c1.1,0.6,1.8-0.8,2.7-0.1c0.3-1.6,1.8,0.5,1.7-1.6c0.2,2.3,2,1.6,2.5,0.4
						c-0.1,0.7,0.6,0.6,0.5,1.6c0.7-0.1,1.3-0.7,1-1.8c1.8,2.5,2.2-2.6,3.6,0.7c1-0.8,1.9-1.5,2.7-2.2c0.9-0.6,1.8-1.2,2.6-1.7
						c0.5,2.2-2,0.8-1.4,3c1.6-1.4,2.1-3.5,4-3.5c0.5,0.2,0,1,0,1.4c0.8-0.7,1.6-0.9,2.5-1.2c0.8-0.3,1.6-0.6,2.2-1.5
						c0.1,0.2,0,0.5-0.1,0.7c0.3-0.2,0.8,0,0.4-0.9l-0.2,0.4c-1-1.2,0.1-3.3-0.2-4.1c0.6,2.9,1.7,0.1,2.4,3.8
						c0.1-0.3,0.2-0.8-0.1-1.4c0.4,0.1,0.6,0.4,0.6,1.2c0.9-1,0-1.8,1-2.2c0.2,0.5,0.1,0.7,0.2,1.3c0.1-1.1,0.2-2.2,1.1-2.2
						c0.1,0.3,0.3,0.6,0.1,0.7c1.3-0.8,1.1-3.4,3-3.4c0.6,2.1,0.8,0.4,1.8,1.9l0.5-0.9l-0.8-0.6c0.7-0.4,0.6-1.9,1.5-1.7l-0.1,1
						c0,0,0.3-0.3,0.5-0.5c0.3-0.3,0.5-0.5,0.5-0.5s-0.3,0-0.5-0.1c-0.3,0-0.5-0.1-0.5-0.1c0.1-1.2-1.3-1.9-0.2-2
						c-0.1,0.3,0.6-0.4,1.6,0.3l0,0c0-0.7-0.1-1.4,0.7-1.4c0.5,0.4,1.1,1.8,1.4,2c-0.6-1.5,1.2-1.4,0.6-3.1c0.1,0.4,0.7,1.2,0.9,1.3
						l-0.5-1.2c0.5,0.1,0.7,0.2,1.1,0.9c1-0.5-1.7-1.7-0.1-1.6c0,0.1,0.1,0.3,0.1,0.5c1.4-0.4,1.4-2.2,2.7-2.5
						c1.5,1.2-0.5,1,0.9,1.9c0.6-0.7,0.8-1.7,1.1-2.7c0.3-1,0.7-1.8,1.4-2.2l-0.4,0.1c-1.8-2,1.8,0,1.4-1.5c0,0.3,0.9,1.2,0.7,0.9
						c1.1-0.5,1.1-2.2,1.5-4l0.4,0.6c0.9-0.1,1.4-1.2,2-1.6c-0.4-0.6-0.1-0.8-1-1.2c1.1,0.1,1.7-0.1,2.1-0.5c0.3-0.4,0.4-1,0.4-1.6
						c0.1-1.2,0-2.3,1.9-2.4c-0.1,0.2,0.2,0.8,0.3,0.6l0.3-1.8c-1.1-0.5-0.7-0.2-1.7-0.3c-0.5-0.5-0.7-1.2-0.5-1.5
						c0.3,1,1.6,0.9,2.4,0.9c-0.3-0.1-0.6-0.4-1-0.6c2.2,0.2-2-1.2-0.2-1.6l0.5,0.3c-0.1-0.5-0.6-1.2-0.3-1.6
						c1.3,0.4,0.4,0.7,1.3,1.2c0.2-0.6-1.7-2.3-0.2-2.2c0.2,0.4,0,0.8,0.2,1.2c1.7,0.1,1.4-0.2,1.8-0.5l-0.1,0l1.1-0.8l-0.5,0.1
						c-2.9-2.2,0.1-1.8-1.6-3.7c1.6,1.8,1.1,0.6,2.5,1.3c0.5-0.1,1.1-0.4,1.4-0.1c-1-0.9,1.2-0.5-0.2-1.9c0.5,0.1,0.2-0.5,1.4,0
						c-0.1-0.8-0.9-0.1-1.4-0.4c-0.6-0.8,0.1-1.2,0.7-1.8c0.6-0.5,1.2-1.2,0.3-2.3c-0.5-1.5-2.2-2.2-2.7-3.5
						c0.8-0.2,1.7,0.7,1.7,0.7c0.8-0.5,0.8-1,0.4-1.7c0.4,0.2,0.8,0.1,1.3,0c0-0.5-1.7-0.6-0.9-1.2c0.5,0.2,1.4,0.5,1.9,0.8
						c-0.3-0.7-1.2-1.4-1.5-2.1c0.9-0.1,1.2,0.5,1.7,0.9c-0.3-0.8-0.5-1.9-1.8-2.3c0,0-0.1,0.1-0.3,0.2c-0.1,0.1-0.3,0.2-0.3,0.2
						c0-0.3,1.2,0,1.4,0.2c1,0.7-0.6,0.8-1.1,0.8l-0.2-0.5c-2.9,0.1,0.2,1.8-0.1,2.6l-2-0.7c0,0,0.4,0.3,0.8,0.6
						c0.4,0.3,0.8,0.6,0.8,0.6c-0.6,0.1-1.7,0-2-0.5c-1.1,0.4,0.6,0.7-0.6,0.9c-0.2,0-0.3,0-0.3-0.1l0.5,0.7
						c-0.4-0.2-1.5-0.2-1.1-0.5c-1.4,0.7,1.2,2-0.5,2l-0.1-0.1c0.3,1.6,1.4,0.5,2.9,2.1c0,0-1-0.1-1.9-0.1c-1-0.1-1.9-0.2-1.9-0.2
						l1.4,0.6c-0.1,0.1-0.3,0.4-0.9,0.2c0.8,0.8,0.7,0.1,1.5,0.7c-1.5,0.3,0,2.1-2.4,1.5c1,0.6,1.1-0.4,1.6,0.6
						c-2.5-0.7,0.1,1-1.2,1.2c-1.2-0.7-0.3-1-1.7-0.8c2,1.2-0.9,1-0.7,1.6c1.7,0.7,0.2,1.4,0.4,2.5c-0.5-0.3-1.7,1.1-2.6,1.6
						l-0.3-0.2c1.6,1,0.8,1.6,0.8,2.4c-0.9-0.6-1.3-0.9-1.5-1.4l-0.3,0.5c0.4,0.4,0.6,0.7,0.6,1.2l-1.1-0.8
						c-0.3,0.7,0.6,2.2-0.8,2.6c1,0.8,3.5,1.2,3.6,2.6c-0.6-0.3-1.6-1-1.7-1.4c0,0.1,0.3,0.6-0.1,0.6l-0.7-1c-0.7,0.1,0.7,0.7,0.4,1
						c-0.8-0.6-0.7-0.2-1.4-0.6c0-0.1,0.5-0.1,0.3-0.4c-0.4,0.3-1.1,0.4-1.9,0.1c0.5,0.3,1.1,0.7,1,1.1c-0.4,0.7-1.1-0.5-1.8-0.4
						c0.4,0.6-0.4,0.5,0.8,1.4c-0.1,0.2-0.7-0.2-1.1-0.4c0.3,0.7-1,1.6,0.5,2.2l0.1,0c0,0,0,0.1,0,0.1l0,0l0,0
						c0.2,1-0.5,1.4-1.2,1.8c-0.7,0.4-1.4,0.6-1.7,1.3l-0.4-0.3c-0.1,1-1,1.5-0.6,2.7c-0.2,0.2-1.1-0.2-1.4-0.7
						c-0.2,0.7,0.2,1.1-1.1,1.2c-0.2-1-0.7-0.4,0-0.9c-0.9,0.2-1.5-0.2-1.2,1.4c-0.6-1.1-1.5-0.8-1.5-0.3l1,0.3
						c-0.2,0.4-0.5,0.6-0.9,0.7l-0.9-1.4c-1.3-0.3-1.2,0.9-1.3,1.8c-0.1,0.9-0.3,1.7-1.8,0.8c0.4,1.2,1.2,0.1,1.7,1.4
						c-0.7,0.3-2.7-1.2-2.9-1.1c-1.3-0.2,0.6,2.5-0.6,2.6c0.4,0.4,1.4,1.7,1,2.6c-0.8,0.2-2.1-1.6-2-2.3c0.1-0.1,0.3,0,0.4,0.2
						c0.1-0.3,0.2-0.7-0.4-1.1L362,57c-0.6-0.3-1.5,0.2-1.8-0.7c-0.2,0.8,0.3,1,0.8,1c-1.3-0.3-1.3,0.8-2.4,0.7
						c0.3,0.2,0.8,0.8,0.6,0.8c-1.6,0,0,1.3-0.8,2c-0.9-0.5-0.8-2-1.3-0.9c-0.8-0.3-0.8-1.3-0.8-1.9c-0.3,1.4-1.8,0-2.3,0l0.2-0.6
						c-0.1,0.4-0.3,0.5-0.5,0.5l0.7,1c-0.3-0.1-0.5,0-0.7-0.4c0.1,0.8,1,1.7,1,2.9c-0.6-0.4-0.8,1-1.5-0.4c1.3,0.1-0.7-1.4,0-2
						c-0.1,0.2-0.3,0.3-0.6,0.2c-0.1-0.1-0.1-0.3-0.1-0.4c-1.5-0.9,0.3,1.8-0.8,2.2c-0.2-0.9-0.9-1.5-1-1.2c0.4-0.2,0.8,1.3,0.6,2.1
						c-0.9-0.4-0.6,0.8-1,0.8l0.5,0.2c0.2,0.9-0.2,0.9-0.6,1.3c-0.3-0.6,0.3-0.6,0-0.8c0,1.7-1.7-1.1-2.2,0.2
						c-0.5-0.5-0.6-1.6-1-1.9c-0.5,1.4-1.3-0.9-1.8,0.3c0.6,1.1,0.6,0.8,0.3,2.1c0,0,0.3-0.3,0.6-0.6c0.3-0.3,0.6-0.6,0.6-0.6
						l-0.4,2c0.5-0.1,0.7-1,1-0.9c-0.2,1.1-0.2,0.8,0.3,1.7c-1.1-1.5-0.9,1.4-2,0.4l-0.8-2.8c-1.4-1-1.5,2-3.1,1.6l0.6,0.4
						c0.1,1.2-0.8,0.4-1.2,0.9c-0.2-1-0.5-1.3-0.9-1.8c0.2,0.7-1,0.1-0.8,2.1l-0.9-1.2c-1.2-0.3-0.8,3-2,2.9
						c0.2-1.1-0.5-1.7,0.2-2.6c-0.4,0-0.7-0.1-0.6,0.6c-0.3-0.6-0.8,1.5-1.3,0.6c-0.1,0.5,0,1.5-0.4,1.5c-0.1-0.2-0.1-0.5-0.1-0.5
						c0.1,0.5-0.6,0.7-0.1,1.8c-0.8-1.5-1.6-1.3-2.4-1.1c-0.8,0.2-1.6,0.4-2.2-0.8c-0.8,0.4-1.8,0.8-2.5,0.9c0-0.3,0-0.5,0.1-0.4
						c-1.1-0.8-0.5,2.9-1.7,1.9c-0.7-1.6,0.6-0.9,0.2-1.5c-0.3-3.2-1.4,0.5-2.3-1.4l0.2-0.2c-0.6-1.1-1.4,1.3-2.5,1.1
						c0,0,0-0.3,0-0.5c-0.7,1.7-2,2.2-2.9,2.7c0.3-1.3,0.4-0.7,0.3-2c-0.4,0.2,0.1,2.1-0.8,2.4c-0.3-0.7-0.9-1.3-1-2.7l0.8-0.1
						c-0.4-1.8-1,0.1-1.5-0.3l0.1-0.8c-1.2,0.2-1.3,2.2-2.7,2l0.1,0.6c-0.8,1.9-0.6-1.1-1.4,0.3l-0.1-2c-0.5,0.5-1.8,1.8-2.7,2.2
						c0.6-1.4,1.6-2.1,2.3-3c-0.5,0-1.6,0.1-1.9,1c0.2-0.2,0.5-0.6,0.7-0.3c-0.7,1.5-1.5,2.2-2.5,2.1c0.4-3.8-2.5-1.1-2.9-4.1
						c-1.8,1.3-3.3-0.9-5.3-0.8c0.4,3-0.6,0-0.7,3.1c-0.5,0.2-0.7,0.1-0.7-0.1l-1.2-1.9c-0.3-0.9,0.5-0.6,0.5-1.3
						c-1-0.3-0.3-1.3-0.9-2.2c0,1.1-0.5,1.5-1,1.1l0.7,1.5c-1.6,1.5-1-2.7-2.6-1.2l0.5-0.9c-0.8,0.5-2.7-0.3-3.7,2.1
						c-0.1-0.4-0.2-1.2,0.2-1.4c-1.7-0.5-4.2,2.2-5.5,0.6l0.2-0.7c-0.4,0.2-0.7,1.3-1.1,0.6c0-0.3,0.2-0.7,0.1-0.8
						c-0.2,0.2-1,1.2-1.4,0.8l0.5-0.8c-1.7-1.1-2.9,1.8-4.4,2.2c0.2-2.2-1.2-3-1.8-3.4l0-0.3c-2.1-0.4-3.6,1.6-5.6,2.4
						c-1.1-2.5-4-1.2-5.9-2.5c0.3,0.4-0.1,1.7-0.4,1.9c-0.4-0.5-1.3,1.5-1.2-0.5l0.2,0c-0.3-2-1.3-1.5-2-1.5l-0.1,2.6
						c-0.9-1.9-2.2-1.6-3.3-1.1c-1.1,0.4-2.1,0.9-2.7-0.8c-0.4,0.7-1,0.7-1.4,1.4l0-1.4c-1.3-0.3-1.9-0.4-3.5,0l0.3-1
						c-0.9,0-0.9,4.1-1.7,4.3l-0.4-2.1c-1.5,0.1-3.3-1.6-4.6,0.5c0-0.3,0-0.9,0.2-1c-0.7,0-3-1.1-2.4,1.7c-0.2-1.9-1.6,0-2.3,0.9
						l0-1.4c-0.5,1.9-0.4,2.3-1.3,3c-0.3-0.2-0.3-1.1,0-0.8c-0.9-0.6-0.4,1.4-1.4,0.8l0.2-0.9c-0.8,0-0.7,0.5-0.9,1.6
						c-0.4,0.6-1.5-0.1-1.8-1.4c0,0.8-0.3,1.9-0.8,1.6c-0.1-0.5,0-0.8,0-0.9c-1.5-0.7-1.7,1.9-2.8,0.7c-0.1-0.5-0.2-0.7-0.3-0.8
						c1-0.2,1.9-0.2,1.8-0.1c-0.2-1.3-1.1-1.3-0.7-3.2c-0.5,1.1-1.3,3.4-2.2,2.9c-0.1-0.1-0.1-0.2-0.2-0.4l0.1-0.2
						c-0.2-0.1-0.4,0.1-0.5,0.3c-0.3-0.2-0.5-0.3-0.8-0.2c-0.3-1-1.1-0.4-1.5-0.3c0.3,1.4-0.3,1.3,0.5,2.3c-0.1-0.1,0-0.2,0.3-0.3
						c0.1-0.1,0.1-0.1,0.1-0.2c0,0,0,0.1,0,0.1c0.3-0.1,0.6-0.2,1-0.3c-0.2,0.8-0.4,1.4-1,0.7c0,0.9-0.1,1.9-0.1,2.3
						c-0.9-1.8-2.3-2.6-2.7-3.8c-1.1,1-2.9,1.2-3.1,3.9c-0.3,0.4-0.6-0.6-0.8-1c0.1-0.3,0.4-0.3,0.4-0.7c-0.6,0.8-2.1,0.8-1.8,2.6
						c-1.1-0.5,0.1-1.8-1.1-1.1l0-0.6c-1.7-1-2.4,0.4-3.1,1.8c-0.7,1.4-1.3,2.7-3.4,1.6c0.3,0.1,0.4,0.2,0.6,0.4
						c-1.9-0.1-3.3,1.2-4.6,2.4c-1.3,1.2-2.5,2.4-4.7,2.7c-1.1,0.3-0.3,1.3,0,2.3l-1.3-0.8c0,0,0.2,0.5,0.3,1
						c0.2,0.5,0.3,0.9,0.3,0.9c0.1,0.9-1,0.8-2,0.9c-1,0.1-2,0.4-1.4,1.9l1,0.3c-0.5,0.5-0.4,2.1-1.4,1.5c0.1,0.1,0.9,0.6,0.3,0.6
						l-0.7-0.3c0,0,0.1,0.5,0.3,1c0.2,0.5,0.3,1,0.3,1c-0.5,0.5-1.2,0.2-1.9,0c-0.7-0.2-1.4-0.3-1.7,0.6c0.1,0.8,1.7,2.6,2.3,2.4
						c0.1-0.3,0.6-0.6,1.4-0.4l0.3,0.6c1.1,0.3,2.2,0.7,3.3,0.9c1.1,0.2,2.1,0.2,3-0.1c0,0-0.3-0.3-0.6-0.5
						c-0.3-0.3-0.6-0.6-0.6-0.6l1.1,0.1l-0.1,0.6c1.1,0,0.3-0.5-0.3-0.9c0.6,0.1,1,0.2,1.3,0.2c0,0-0.5-0.3-0.9-0.7
						c-0.5-0.4-0.9-0.7-0.9-0.7c0.9,0.3,1.5,1,2.2,0.8c-0.8-0.7-2-0.5-2.4-1.3c1.1,0.1,1.8,0.6,1.2-0.2c0.6,0.2,0.9,0.5,1,0.7
						c-0.5-0.6,0.1-0.9-0.8-1.7c1.3,0.3,0.4-1.3,2.2,0c-0.4-0.4-1.1-1.5-0.9-1.8c1.7,2.1,0.9-0.9,3,1c-0.8-0.9-0.7-1.4-0.5-1.8
						c0.2-0.4,0.6-0.7,0.4-1.5c0.1,0.2,0.3,0.5,0.2,0.5c0.5-0.2,1,0.3,1.5,0.4c-1.2-1.5-1-2.3-1.4-3.5c1.6,1.2,1.1,2,2.4,3.4
						c-1-1.2-0.2-1.8-1.1-2.8c1,0.7,0.6,0.2,1.7,1.5c-1.3-2.1,0.1-0.6-0.4-2c1.2,0.7,1.3,1.9,1.5,0.9C215.8,82.9,215.7,84,215.7,84z
						 M232.1,74.7C232.1,74.7,232.1,74.8,232.1,74.7c-0.2,0.1-0.3,0.1-0.4,0.2C231.7,74.9,231.9,74.8,232.1,74.7z M233.7,74.4
						c-0.2,0-0.5,0-0.7,0.1c-0.1-0.5-0.2-1,0-1C233,73.8,233.4,74.1,233.7,74.4z M228.3,65.5c0.2-0.2,0.4,0,0.5,0.3
						c-0.1,0-0.3,0.1-0.5,0.3c0,0,0,0.1,0,0.2C228.3,65.9,228.3,65.7,228.3,65.5z"/>
					<path class="st0" d="M228.2,67.4c0,0,0,0.1-0.1,0.1c0.1,0.1,0.2,0.2,0.2,0.3c0-0.2,0-0.3,0-0.5
						C228.3,67.4,228.2,67.4,228.2,67.4z"/>
					<path class="st0" d="M377.3,45.7L377.3,45.7c0,0,0.1,0,0.2,0.1C377.4,45.8,377.3,45.8,377.3,45.7z"/>
					<polygon class="st0" points="257.2,74.7 257.2,74.3 257,74.7 					"/>
					<path class="st0" d="M386.6,40.3c0.1,0,0.2,0.1,0.4,0.1C386.9,40.4,386.7,40.3,386.6,40.3z"/>
					<path class="st0" d="M388.8,36.6l0.7-0.4C389.1,36.4,388.9,36.5,388.8,36.6z"/>
					<path class="st0" d="M390.8,33.8c-0.2-0.1-0.4-0.2-0.5-0.3c0,0,0,0,0,0L390.8,33.8z"/>
					<path class="st0" d="M353.9,71.6c0,0-0.1,0.1-0.1,0.1C353.6,72.1,353.8,71.9,353.9,71.6z"/>
					<path class="st0" d="M366.6,61.5c0,0.3,0,0.6,0,0.8C366.8,62.2,367,62.1,366.6,61.5z"/>
					<path class="st0" d="M336.8,77.7C336.8,77.6,336.8,77.6,336.8,77.7c0,0-0.1,0-0.1,0L336.8,77.7z"/>
					<path class="st0" d="M365.9,62.7c0.4,0.1,0.5-0.1,0.6-0.4C366.3,62.4,366,62.4,365.9,62.7z"/>
					<path class="st0" d="M395,19.6l0.1-0.2c-0.1,0-0.2,0-0.2,0L395,19.6z"/>
					<path class="st0" d="M394.9,19.4l-0.1-0.2C394.7,19.3,394.7,19.3,394.9,19.4z"/>
					<path class="st0" d="M394.4,18.8l0.3,0.4C394.8,19.1,394.8,18.9,394.4,18.8z"/>
					<path class="st0" d="M393.6,24l0.5,0.2C394,24.1,393.9,24,393.6,24z"/>
					<path class="st0" d="M393.5,25.3c0.2-0.3,1.2-0.6,1-1.1l-0.4-0.1C394.8,24.5,392.7,24.9,393.5,25.3z"/>
					<path class="st0" d="M386,28.9c0,0,0.2-0.2,0.4-0.4c0.2-0.2,0.3-0.4,0.3-0.4c-0.6,0-1.3,0-1.3-0.5
						C383.5,28.3,386.6,27.7,386,28.9z"/>
					<path class="st0" d="M384.2,31.5c0-0.6-0.7-0.3-1-0.4C383.5,31.6,383.6,31.7,384.2,31.5z"/>
					<path class="st0" d="M371.7,50.4l-0.9-0.9C370.7,49.8,371.2,49.8,371.7,50.4z"/>
					<polygon class="st0" points="372.8,58.3 373.7,58.6 373.1,57.6 					"/>
					<polygon class="st0" points="365,53 365,52.7 364.8,53.5 					"/>
					<path class="st0" d="M330.6,66l0.3,1.6C331.1,67.2,331,65.5,330.6,66z"/>
					<path class="st0" d="M313.8,68.1c-0.2-0.8-0.6-1.3-0.9-0.6C313.3,67.6,313.6,68.3,313.8,68.1z"/>
					<polygon class="st0" points="261.5,62 261.9,61.5 261.2,61.9 					"/>
				</g>
			</g>
		</g>
	</g>
</g>
<g>
	<g>
		<g>
			<g>
				<g>
					<path class="st0" d="M13,15c-0.4-0.1-1.4,0-1.2,0.3l1.7,0.1L13,15z"/>
					<path class="st0" d="M10.1,17.4c0.8,0.3,2.3,0.6,3.8,0.2c-1.6-0.2-1-0.4-2.9-0.6c-0.2-0.3,0.5-0.6,1.1-0.6
						c-0.4-0.1,0.3-0.5-0.7-0.6c-1.2,0.5-1.3,1.1-0.2,1.5C10.8,17.5,10.4,17.4,10.1,17.4z"/>
					<path class="st0" d="M20.1,48.6l0-0.3C20,48.5,20,48.6,20.1,48.6z"/>
					<path class="st0" d="M35.1,63.4c-0.2-0.1-0.3,0.1-0.4,0.2C34.9,63.6,35,63.6,35.1,63.4z"/>
					<path class="st0" d="M37.3,66.9c0-0.1-0.1-0.1-0.1-0.2C37.2,66.8,37.2,67,37.3,66.9z"/>
					<path class="st0" d="M20.1,48.6l0,0.8C20.5,49.1,20.1,48.9,20.1,48.6z"/>
					<path class="st0" d="M14.6,21.1c-0.1-0.1-0.3-0.1-0.5-0.2c0.1,0.1,0.2,0.1,0.2,0.2C14.4,21.2,14.5,21.2,14.6,21.1z"/>
					<path class="st0" d="M13.8,41.6l-0.1-0.1c-0.2,0-0.4,0.1-0.7,0.2L13.8,41.6z"/>
					<path class="st0" d="M10.3,35.2c0,0.2,1.3-0.3,1.9-0.5c-0.6,0.1-0.9,0.1-1,0.1C11,34.9,10.7,35,10.3,35.2z"/>
					<path class="st0" d="M9.3,23.7l-0.2-0.2C9.1,23.6,9.2,23.6,9.3,23.7z"/>
					<path class="st0" d="M16.3,46.2c-0.2,0.1-0.3,0.3-0.4,0.3C16,46.4,16.1,46.3,16.3,46.2z"/>
					<path class="st0" d="M202.7,81.1c-0.1,0-0.1,0.1-0.2,0.1C202.7,81.2,202.8,81.2,202.7,81.1z"/>
					<path class="st0" d="M200,92.1L200,92.1c-0.4,0-0.6,0-0.9,0.1L200,92.1z"/>
					<path class="st0" d="M42.7,71.5C42.7,71.5,42.7,71.5,42.7,71.5C42.4,71.6,42.6,71.6,42.7,71.5z"/>
					<path class="st0" d="M103,76.5c-0.8-1.2,0.9-1.7-0.2-3C102.9,74,102.1,75.7,103,76.5z"/>
					<path class="st0" d="M14.4,21.3c0,0.1,0,0.2,0.1,0.3C14.5,21.5,14.5,21.4,14.4,21.3z"/>
					<path class="st0" d="M102.8,73.5L102.8,73.5l-0.1-0.1C102.7,73.4,102.7,73.4,102.8,73.5z"/>
					<path class="st0" d="M58,75.5c0-0.2,0-0.4,0-0.6C57.9,75,57.9,75.2,58,75.5z"/>
					<path class="st0" d="M47.5,70.4l0.2,0.3C47.6,70.5,47.5,70.4,47.5,70.4z"/>
					<path class="st0" d="M64.2,74.6c0.1,0.1,0.2,0.3,0.4,0.2c0-0.1,0-0.1,0-0.2C64.4,74.8,64.3,74.9,64.2,74.6z"/>
					<path class="st0" d="M70.2,75.3c0-0.1-0.1-0.2-0.1-0.3c-0.1,0-0.1,0-0.2,0.1L70.2,75.3z"/>
					<path class="st0" d="M185.1,68.8c0,0.4-0.1,0.9-0.1,1.3C185.2,69.1,186.3,69.1,185.1,68.8z"/>
					<path class="st0" d="M13.8,21.3c0.4,0,0.5,0,0.6,0.1c0-0.1-0.1-0.1-0.1-0.2C14.1,21.2,13.9,21.2,13.8,21.3z"/>
					<path class="st0" d="M66.1,63.7c0,0,0.2,0.1,0.4,0.2c0.2,0.1,0.4,0.2,0.4,0.2C66.7,63.8,66.4,63.7,66.1,63.7z"/>
					<path class="st0" d="M141.9,62.5l0.2-0.2C142,62.3,141.9,62.4,141.9,62.5z"/>
					<path class="st0" d="M69.4,64.1c0.1,0.5,0.2,0.8,0.4,1c0-0.1,0.1-0.2,0.1-0.4L69.4,64.1z"/>
					<path class="st0" d="M185,70.1C185,70.1,185,70.1,185,70.1C185,70.1,185,70.1,185,70.1z"/>
					<path class="st0" d="M193,70.2c-1-0.6-1.3,1.3-2.1,2.1c-1.3-0.1,0.1-1.5,0.2-2.5c-1,0.1-2.2,1.3-2.7,1c0.1-0.3,0-0.4,0.3-0.7
						c-1.3,1-2.3-0.9-3.8,0.5c0-0.2,0-0.3,0-0.5c-0.2,0.9-0.5,1.8-0.7,2.4c-0.4-0.1-1.1,0.8-0.9-0.3c0.2,0.1,0.4-0.3,0.6-0.6
						l-0.6,0.3c0.2-1.8,0.8-0.4,1.2-1.6c-1,0.2-2.4,1.3-2.9,0.6c0.4-1.7,1.7-0.1,1.3-1.8l0.8,0.9c0.1-2.8,0.6,0.4,0.8-2.6
						c-1.2-0.9-1.8,0.3-3-0.5c-0.6,0.8-0.3,1.4-0.8,2.2c-2.3,1.2-0.4-4.5-2.3-2.7c-0.6,1-1.2,3.1-1.9,1.8l0.7-1.8
						c-1.2-0.5-1.3,2.5-2.3,1c0.4-0.7,1.1-0.4,1-0.7c-0.5-1.7-0.8,0.9-1.5,0.8l0.2-1.7c-1.4,0-3.1,0.9-4.6,0.9
						c0.2-0.5,0.5-1,0.3-1.5c-2,0.5-3.9-0.9-5.6-2.2l-0.9,1.4c-0.2,0-0.2-0.7,0-1c-0.6-0.7-0.2,0.9-0.6,1.4c-0.4,0-0.4-0.9-0.1-1.3
						c-1.4,1.1-3.9,2.2-5,0.5l0.3-0.4c-1-0.7-1.5,2.9-2.3,1.4l0.2-0.2c-2.1-0.9-4.7,0.3-6.2-2c-0.5,2.1-2.1-1.1-2.5,1.9
						c-1.2-1.5-0.8-2-2.5-3.1c-0.5-0.2-0.8,1.8-1.4,2.1l0-1.5l-0.8,1.6l-0.4-1.9l-0.6,0.4c0.2,0.1,0.5,0.7,0.4,1.1
						c-0.9,0.7-2.1-1.1-2.1-1.9l-2.1,1.3c0-0.6,0.4-0.8,0.7-1.2c-1.1,1.6-0.2-1.6-1.2-0.2c0.1,0.3-0.1,0.9-0.1,1.2
						c-0.5-0.9-1.6-0.9-2.5-0.5l0.1-1.1c-1.5-0.2-3.2,0.6-4.9,0.6c0.6,0.5,0.6,2.3,0.1,2.5l-0.3-1.6c-0.3,1,0.5,0.6-0.1,1.9
						c-0.6-0.2-0.5-1.8-0.2-2.4l-0.7,0.6c-0.1-0.5,0.1-0.7,0.1-1.4c-0.3,1-1.4-1.6-1.8,0.2l-0.1-0.5c-1.7,0.1-2.4,0.7-3.8,0.9
						c0.1,1.4-0.5,1.1-0.8,2.3c-1-0.4-2.2-1.4-3.4-1.2c-0.8,0.8-0.1,1.2-0.5,2.1c-0.2-1.3-1.4-1.1-0.8-2c-1.4,0.3-1.8,0.4-3.5,1.6
						c0.2,0.5,0.5,0.7,0.4,1.2c-0.3,0.2-0.8-0.5-0.8-1.1l0.1-0.1c-1.8,2.1-5-3.3-6.4-0.5l0.1-0.1l-1.5,1.5c-0.8-0.1,0.4-1-0.3-1.7
						c-1.6,2.3-2.9,0-4.2,1.5c-1.5-3.7-4,0.6-5.7-1.7l0.2,0.9c-0.3,0.9-0.5-0.5-0.8-0.7c0.1,0.7,0.5,0.8,0.3,1.3
						c-3.3,1.3-6.9-0.8-10.3-1.6c-1.2-0.2-0.6,4.6-2.2,2.5l0.4-1.7c-2.4,2-5,0-7.4,1.5c0.2-0.4,0.2-0.9,0.4-0.9
						C76.5,64,75.1,65.1,75,66c-0.4-0.1,0-0.9-0.2-1.4c-0.5-0.7-1.4,1.4-1.5,0.2c0-0.2,0.2-0.4,0.3-0.5c-0.4,0.6-1.5-0.2-1.3,1.2
						c-0.8-0.7-1.8,0.5-2.4-0.4c-0.6,1.5-1.4-0.9-1.8,1.2c0.3-2.2-1.3-2-2-1c0.3-0.6-0.4-0.8,0-1.7c-0.6-0.1-1.3,0.3-1.3,1.4
						c-0.7-2.8-2.7,1.7-2.7-1.8c-1,0.4-2,0.7-3,0.9c-1,0.2-1.9,0.3-2.8,0.3c0.6-2.2,1.9,0.3,2.4-2c-1.7,0.5-3.2,2.1-4.6,1.1
						c-0.3-0.4,0.5-0.9,0.8-1.2c-0.9,0.2-1.6-0.1-2.3-0.3c-0.7-0.3-1.4-0.5-2.3-0.2c0.1-0.2,0.3-0.4,0.5-0.5c-0.3,0-0.5-0.5-0.8,0.4
						l0.4-0.2c-0.1,1.6-2.2,2.5-2.5,3.2c1.5-2.5-1.1-1.2,1.1-4.4c-0.2,0.1-0.6,0.5-0.9,1.1c-0.2-0.3-0.1-0.7,0.5-1.3
						c-1.1,0.1-1.3,1.3-2.1,0.9c0.2-0.5,0.5-0.5,0.8-1c-0.8,0.7-1.6,1.4-2.2,0.6c0.2-0.2,0.3-0.6,0.5-0.5c-1.3-0.4-3.2,1.3-4.1-0.3
						c1.4-1.7-0.1-0.9,0.8-2.5l-0.9,0.1l-0.2,0.9c-0.6-0.4-1.8,0.5-2-0.4l0.8-0.4l-1.3-0.4c0,0,0.1,0.3,0.1,0.5
						c0.1,0.2,0.1,0.5,0.1,0.5c-1.1,0.4-1.2,2.1-1.7,1.1c0.3,0-0.6-0.4-0.3-1.6l0,0c-0.6,0.3-1.3,0.6-1.5-0.1c0.2-0.6,1.3-1.6,1.4-2
						c-1.2,1.1-1.6-0.6-2.9,0.4c0.4-0.2,1-1,1-1.2l-1,0.8c0-0.5,0.1-0.7,0.6-1.3c-0.6-0.8-1.2,2-1.5,0.5c0.1,0,0.2-0.2,0.5-0.2
						c-0.6-1.1-2.2-0.9-2.7-2c1-1.6,1,0.3,1.8-1.2c-0.7-0.3-1.6-0.5-2.5-0.7c-0.9-0.2-1.7-0.5-2.1-1.2l0,0.3
						c-2.1,1.7,0.2-1.7-1.2-1.4c0.3,0,1.3-0.8,1-0.6c-0.4-1-1.8-1.1-3.5-1.8l0.7-0.3c0.1-0.8-0.7-1.5-0.8-2.2
						c-0.7,0.3-0.8-0.1-1.5,0.7c0.5-1,0.5-1.6,0.2-2c-0.2-0.4-0.7-0.7-1.2-0.9c-1-0.4-2.1-0.9-1.2-2.5c0.1,0.2,0.8,0.1,0.7,0l-1.3-1
						c-0.9,0.7-0.5,0.5-1.1,1.2c-0.7,0.2-1.4,0-1.6-0.3c1,0.2,1.6-0.9,2-1.5c-0.3,0.2-0.7,0.3-1,0.5c1.4-1.7-2.1,1-1.4-0.7l0.6-0.2
						c-0.5-0.2-1.4-0.2-1.4-0.7c1.1-0.8,0.8,0.1,1.8-0.3c-0.3-0.5-2.8,0-1.9-1.1c0.5,0.1,0.6,0.4,1.1,0.5c1.1-1.2,0.7-1.1,0.8-1.6
						l0,0.1l0.2-1.2l-0.3,0.4c-3.5,0.7-1.2-1.2-3.7-1.3c2.4,0.2,1.2-0.3,2.7-0.8c0.3-0.4,0.6-0.9,1-1c-1.3,0,0.6-1.1-1.3-1.1
						c0.5-0.2-0.1-0.5,1.1-0.8c-0.6-0.5-0.8,0.4-1.4,0.6c-1-0.2-0.7-0.9-0.4-1.6c0.2-0.7,0.4-1.4-0.9-1.8c-1.2-0.9-2.8-0.8-3.9-1.8
						c0.7-0.5,1.8-0.1,1.8-0.1c0.6-0.8,0.3-1.2-0.3-1.7c0.4,0,0.8-0.1,1.3-0.4c-0.2-0.4-1.8,0-1.2-0.7c0.6,0,1.4,0,2,0.1
						c-0.5-0.5-1.5-0.8-2-1.4c0.8-0.3,1.3,0.2,1.9,0.3c-0.5-0.6-1-1.5-2.4-1.6c0,0-0.1,0.1-0.2,0.2c-0.1,0.1-0.2,0.2-0.2,0.2
						c-0.1-0.2,1.1-0.3,1.4-0.1c1.1,0.4-0.3,0.8-0.8,0.9l-0.4-0.4c-2.8,0.8,0.7,1.6,0.7,2.4l-2.1,0c0,0,0.5,0.1,0.9,0.3
						c0.5,0.1,0.9,0.3,0.9,0.3c-0.5,0.3-1.6,0.6-2,0.3c-0.9,0.8,0.8,0.4-0.2,1.1c-0.2,0.1-0.3,0.1-0.4,0.1l0.7,0.5
						c-0.5,0-1.4,0.4-1.2,0c-0.9,1.4,1.9,1.4,0.5,2.2l-0.1-0.1c1.1,1.3,1.5-0.2,3.6,0.4c0,0-0.9,0.4-1.7,0.9
						c-0.9,0.4-1.7,0.9-1.7,0.9l1.5-0.3c0,0.2,0,0.5-0.6,0.6c1.2,0.3,0.6-0.3,1.6-0.3c-1.1,1.2,1.3,1.7-1,2.7c1.2-0.1,0.6-1,1.6-0.5
						c-2.4,1.1,0.7,0.7-0.2,1.8c-1.3,0.3-0.9-0.6-1.8,0.5c2.2-0.4,0.1,1.5,0.7,1.9c1.7-0.7,1.2,0.9,2.2,1.5
						c-0.6,0.2-0.1,2.1-0.2,3.2l-0.3,0.1c1.7-0.7,1.8,0.3,2.5,0.7c-1,0.5-1.4,0.6-2,0.5l0.3,0.6c0.6-0.2,1-0.1,1.4,0.1l-1.3,0.5
						c0.5,0.7,2.3,0.7,2.1,2.1c1.1-0.7,2.5-2.6,3.9-2.2c-0.6,0.4-1.5,1.1-1.9,1c0.1,0,0.7,0,0.5,0.3l-1.2,0.2
						c-0.2,0.7,1-0.3,1.1,0.1c-0.8,0.5-0.4,0.6-1.1,1c-0.1,0,0.1-0.5-0.3-0.4c0.1,0.5-0.1,1.3-0.6,1.9c0.4-0.4,1.1-0.7,1.4-0.5
						c0.6,0.7-0.8,0.9-0.9,1.6c0.7-0.2,0.4,0.6,1.6-0.2c0.1,0.2-0.4,0.7-0.6,1c0.8,0,1.4,1.6,2.4,0.2l0-0.2c0,0,0.1,0,0.1,0l0,0l0,0
						c1,0.1,1.3,0.8,1.6,1.6c0.2,0.8,0.4,1.7,1.1,2l-0.4,0.3c1,0.3,1.6,1.2,2.8,0.9c0.2,0.2-0.2,1.1-0.7,1.4
						c0.7,0.2,1.2-0.1,1.3,1.1c-1.1,0.2-0.4,0.7-0.9,0c0.3,0.9-0.1,1.6,1.5,1.3c-1.1,0.7-0.6,1.6,0,1.6l0.1-1.1
						c0.5,0.2,0.7,0.5,1,0.9l-1.3,1.1c0.1,1.4,1.2,1.3,2.3,1.2c1.1-0.1,1.9-0.1,1.5,1.7c1.1-0.6-0.3-1.3,0.9-2.1
						c0.5,0.7-0.2,3.1,0,3.3c0.5,1.4,2.3-1.4,2.9-0.2c0.2-0.6,1-2,2-2c0.6,0.6-0.5,2.6-1.2,2.8c-0.2-0.1-0.2-0.3-0.1-0.4
						c-0.3,0-0.8,0.1-0.8,0.8l0.4-0.4c0,0.7,1.1,1.3,0.3,2c0.8-0.1,0.7-0.7,0.5-1.2c0.5,1.3,1.4,0.9,2.1,1.9c0-0.4,0.2-1.1,0.4-1
						c1.1,1.4,1.2-0.6,2.2-0.4c0.1,1.1-1.2,1.8,0.1,1.7c0.3,0.9-0.6,1.5-1,1.8c1.4-0.5,1.4,1.5,1.9,2L40,70.9c0.4-0.1,0.7,0,0.9,0.1
						l0.2-1.2c0.2,0.3,0.4,0.4,0.2,0.9c0.6-0.6,0.6-1.9,1.6-2.6c0.1,0.7,1.4-0.1,0.9,1.4c-1-1-0.5,1.5-1.6,1.3
						c0.3-0.1,0.5,0,0.7,0.3c0,0.2-0.2,0.3-0.3,0.3c0.6,1.8,1.2-1.4,2.4-0.9c-0.5,0.8-0.3,1.7-0.1,1.6c-0.5-0.2,0.3-1.5,1-1.9
						c0.5,0.9,1-0.2,1.4,0.1l-0.3-0.5c0.5-0.8,0.8-0.5,1.4-0.6c-0.2,0.7-0.6,0.3-0.6,0.6c1.1-1.3,0.8,2,2,1.3
						c0.2,0.7-0.5,1.6-0.3,2.1c1.3-0.8,0.7,1.5,2,0.9c0-1.2-0.1-1,1-1.9c0,0-0.5,0.1-0.9,0.2c-0.5,0.1-1,0.1-1,0.1l1.6-1.3
						c-0.5-0.2-1.3,0.4-1.5,0.1c0.8-0.8,0.6-0.5,0.7-1.5c0.1,1.9,1.6-0.6,2,0.8l-0.8,2.8c0.9,1.6,2.5-0.9,3.9,0.2l-0.4-0.6
						c0.5-1.1,1,0.1,1.6-0.3c-0.3,1,0,1.4,0.1,2c0.1-0.7,1.1,0.3,1.7-1.6l0.4,1.4c1.2,0.8,1.9-2.5,3.1-2c-0.5,1-0.1,1.8-1,2.4
						c0.4,0.1,0.7,0.3,0.9-0.4c0.1,0.6,1.3-1.1,1.6-0.2c0.2-0.4,0.4-1.4,0.9-1.3c0,0.2-0.1,0.5-0.1,0.5c0.1-0.5,0.8-0.6,0.5-1.7
						c0.4,1.6,1.3,1.7,2.1,1.7c0.9,0,1.7-0.1,2.1,1.3c0.9-0.2,2-0.5,2.8-0.5c-0.1,0.3,0,0.5-0.2,0.4c1.1,1,0.9-2.8,2-1.7
						c0.6,1.6-0.7,0.8-0.3,1.4c0,3.3,1.5-0.4,2.3,1.6l-0.2,0.2c0.6,1.1,1.6-1.2,2.7-0.9c0,0-0.1,0.3,0,0.5c0.8-1.6,2.1-2.2,3.1-2.6
						c-0.3,1.3-0.5,0.7-0.3,2c0.5-0.2-0.1-2.1,0.8-2.4c0.3,0.7,1,1.3,1.1,2.7L83,75.6c0.5,1.8,1.1-0.1,1.6,0.2l0,0.8
						c1.3-0.3,1.3-2.3,2.7-2.1L87,73.9c0.7-2,0.7,1.1,1.4-0.4l0.3,2c0.5-0.5,1.7-2,2.5-2.4c-0.4,1.5-1.4,2.3-2.1,3.2
						c0.5,0,1.7-0.2,1.9-1.2c-0.2,0.2-0.4,0.7-0.6,0.4c0.5-1.6,1.3-2.4,2.3-2.4c0.1,3.8,2.6,0.8,3.6,3.7c1.6-1.5,3.5,0.3,5.6-0.1
						c-1-2.9,0.6-0.1,0.2-3.2c0.5-0.2,0.6-0.2,0.7,0l1.6,1.7c0.4,0.9-0.4,0.7-0.3,1.4c1.1,0.1,0.6,1.3,1.3,2
						c-0.2-1.1,0.2-1.6,0.8-1.2l-1-1.3c1.3-1.8,1.5,2.4,2.8,0.7l-0.4,1c0.7-0.6,2.7-0.2,3.2-2.8c0.2,0.3,0.4,1.2,0.1,1.4
						c1.8,0.2,3.7-3,5.2-1.6l-0.1,0.8c0.3-0.2,0.4-1.5,0.9-0.7c0,0.3-0.1,0.8,0.1,0.8c0.1-0.3,0.8-1.4,1.2-1l-0.3,0.9
						c1.8,0.8,2.4-2.3,3.8-2.9c0.2,2.2,1.6,2.8,2.2,3.1l0,0.3c2,0.1,3.2-2,5-3c1.2,2.3,3.9,0.8,5.7,2.1c-0.3-0.4,0-1.7,0.3-1.9
						c0.4,0.4,1.2-1.5,1.1,0.5l-0.2,0c0.3,2,1.2,1.4,1.9,1.5l0.1-2.6c0.9,1.9,2,1.6,3.1,1.2c1.1-0.4,2.1-0.8,2.5,0.9
						c0.5-0.6,1-0.6,1.4-1.3l-0.1,1.4c1.2,0.4,1.7,0.6,3.2,0.4l-0.4,1c0.8,0.1,1.3-4,2.1-4l0.1,2.1c1.5,0.1,2.7,2,4.3,0.3
						c-0.1,0.3-0.2,0.9-0.4,1c0.7,0.1,2.4,1.7,2.5-1.2c-0.2,1.9,1.5,0.3,2.3-0.4l-0.3,1.4c0.9-1.7,1-2.2,2-2.5
						c0.2,0.2,0,1.1-0.2,0.7c0.6,0.8,0.7-1.2,1.5-0.4l-0.5,0.8c0.7,0.2,0.7-0.3,1.3-1.2c0.6-0.5,1.4,0.6,1.3,1.8
						c0.2-0.7,0.8-1.7,1.2-1.3c0,0.5-0.2,0.7-0.3,0.9c1.1,1.1,2.1-1.3,2.8,0.2c-0.1,0.5,0,0.7,0,0.8c-1-0.2-1.8-0.4-1.7-0.5
						c-0.2,1.3,0.5,1.6-0.4,3.3c0.8-0.8,2.2-2.7,2.9-2c0,0.1,0,0.3,0,0.5l-0.1,0.1c0.2,0.2,0.3,0.1,0.5-0.1c0.2,0.3,0.3,0.4,0.6,0.5
						c-0.1,1.1,0.8,0.7,1.2,0.9c0.2-1.4,0.7-1.1,0.5-2.3c0,0.1-0.1,0.2-0.4,0.2c-0.1,0-0.1,0-0.2,0.1c0,0,0-0.1,0.1-0.1
						c-0.3,0-0.6,0-1-0.1c0.4-0.6,0.9-1.2,1.2-0.3c0.4-0.8,0.8-1.7,1-2.1c0.2,2,1,3.3,0.9,4.5c1.4-0.5,2.9,0.1,4.3-2.3
						c0.4-0.2,0.2,0.8,0.2,1.3c-0.3,0.2-0.5,0.1-0.7,0.5c0.8-0.5,2,0.2,2.7-1.5c0.6,1-0.9,1.5,0.3,1.5l-0.3,0.5
						c0.7,1.7,1.8,0.9,3.1,0.2c1.2-0.7,2.6-1.2,3,1.1c-0.1-0.3-0.1-0.4,0-0.7c0.9,1.3,2.3,1.7,3.7,2.2c1.3,0.6,2.6,1.4,2.6,3.3
						c0.1,0.9,1,0.1,2-0.1l-1,1.1c0,0,0.5-0.1,0.9-0.3c0.5-0.1,0.9-0.2,0.9-0.2c0.9,0.1,0.5,1.1,0.1,1.9c-0.3,0.9-0.6,1.6,0.8,1.6
						L196,87c0.1,0.5,1.3,1.2,0.2,1.6c0.2,0,1-0.3,0.6,0.1l-0.7,0.3c0,0,0.4,0.2,0.9,0.3c0.4,0.2,0.9,0.4,0.9,0.4
						c-0.1,0.6-0.8,0.8-1.5,1c-0.7,0.3-1.3,0.5-1.2,1.1c0.4,0.3,2.6,0.8,3,0.5c0-0.2,0.3-0.7,1.1-0.9l0.5,0.4
						c1.1-0.2,2.3-0.3,3.4-0.6c1.1-0.3,2-0.8,2.5-1.8c0,0-0.4-0.2-0.8-0.4c-0.4-0.2-0.9-0.4-0.9-0.4l1-0.7l0.4,0.9
						c0.8-0.9-0.2-1-0.9-1.1c0.5-0.3,0.9-0.6,1-0.9c0,0-0.6-0.1-1.2-0.2c-0.6-0.1-1.2-0.1-1.2-0.1c0.8-0.5,1.9-0.2,2-1.1
						c-1.2-0.1-1.7,1.3-2.6,0.7c0.8-0.9,1.6-1.2,0.5-1.4c0.5-0.3,0.9-0.4,1.3-0.3c-0.9-0.2-1-1.3-2.2-0.9c0.9-1.2-1.3-1.4,0.6-2.6
						c-0.5,0.1-2,0.1-2.4-0.2c2.7-0.8-1.1-1.7,1.2-3.2c-1.2,0.5-1.8,0.1-2.4-0.3c-0.6-0.4-1.2-1-2.1-0.9c0.2-0.1,0.5-0.3,0.5-0.1
						c-0.4-0.6-0.1-1.3-0.1-2c-1.4,1.4-2.5,1.1-3.7,1.7c0.5-2,1.8-1.5,2.7-3.1c-0.9,1.3-2.2,0.3-2.7,1.6c0.1-1.3-0.1-0.8,0.5-2.3
						c-1.4,2-0.8,0-2,1c-0.2-1.5,1-2.1-0.3-2C191.7,70.4,193,70.2,193,70.2z M170,67.4C170,67.3,170,67.3,170,67.4
						c0.2,0,0.3,0,0.4,0C170.3,67.3,170.2,67.3,170,67.4z M168.2,67.1c0.2,0.1,0.5,0.1,0.7,0.2c0,0.5-0.2,1-0.3,0.9
						C168.8,67.9,168.4,67.5,168.2,67.1z M170,77.3c-0.3,0.1-0.3-0.1-0.3-0.4c0.1,0,0.3,0,0.5-0.1c0,0,0-0.1,0.1-0.2
						C170.2,76.9,170.1,77.1,170,77.3z"/>
					<path class="st0" d="M170.9,75.6c0,0,0.1-0.1,0.1-0.1c0-0.1-0.1-0.2-0.1-0.3c-0.1,0.1-0.1,0.3-0.2,0.4
						C170.8,75.6,170.8,75.6,170.9,75.6z"/>
					<path class="st0" d="M20.1,48.3L20.1,48.3c0,0,0-0.1,0.1-0.1C20.2,48.2,20.1,48.3,20.1,48.3z"/>
					<polygon class="st0" points="143.9,61.9 143.9,62.2 144.1,61.9 					"/>
					<path class="st0" d="M18.9,37.7c0.1-0.1,0.2-0.2,0.3-0.3C19.1,37.5,19,37.6,18.9,37.7z"/>
					<path class="st0" d="M17.4,34.1l0.2-0.7C17.5,33.7,17.4,33.9,17.4,34.1z"/>
					<path class="st0" d="M16.9,31c-0.2,0.1-0.4,0.1-0.6,0.2c0,0,0,0,0,0L16.9,31z"/>
					<path class="st0" d="M50.5,61.5c0,0,0.1,0,0.1,0C51,61.3,50.8,61.3,50.5,61.5z"/>
					<path class="st0" d="M36.5,58c0.3-0.1,0.5-0.2,0.8-0.3C37.1,57.4,36.9,57.3,36.5,58z"/>
					<path class="st0" d="M66,63.6C66,63.6,66,63.6,66,63.6C66,63.7,66,63.7,66,63.6L66,63.6z"/>
					<path class="st0" d="M37.7,58.1c-0.1-0.4-0.3-0.4-0.5-0.4C37.3,57.9,37.5,58.1,37.7,58.1z"/>
					<path class="st0" d="M14.3,18.5l0-0.1c-0.1,0-0.2,0-0.2,0L14.3,18.5z"/>
					<path class="st0" d="M14.2,18.4L14,18.3C14,18.3,14,18.4,14.2,18.4z"/>
					<path class="st0" d="M13.6,18l0.4,0.3C14,18.2,14,18,13.6,18z"/>
					<path class="st0" d="M14.3,22.5l0.5-0.1C14.7,22.4,14.6,22.4,14.3,22.5z"/>
					<path class="st0" d="M14.7,23.6c0.1-0.3,0.9-0.9,0.5-1.2l-0.4,0C15.6,22.4,13.8,23.5,14.7,23.6z"/>
					<path class="st0" d="M10.1,30.4c0,0,0-0.3,0-0.6c0-0.3,0-0.6,0-0.6C9.7,29.5,9,30,8.8,29.6C7.6,31.4,9.8,28.9,10.1,30.4z"/>
					<path class="st0" d="M10.5,33.9c-0.5-0.5-0.7,0.3-1,0.4C10.1,34.5,10.3,34.5,10.5,33.9z"/>
					<path class="st0" d="M24.4,54.9l-0.9,0.9C24,56,23.8,55.4,24.4,54.9z"/>
					<polygon class="st0" points="32.3,53.2 32.5,52.3 31.6,53.1 					"/>
					<polygon class="st0" points="28.7,62 28.4,62 29.3,62.1 					"/>
					<path class="st0" d="M69,76.5l0-1.6C68.7,75.1,68.5,76.9,69,76.5z"/>
					<path class="st0" d="M87.1,75.4c0.2,0.8,0.7,1.3,1,0.5C87.7,75.7,87.3,75.2,87.1,75.4z"/>
					<polygon class="st0" points="139,74.4 138.7,74.9 139.3,74.5 					"/>
				</g>
			</g>
		</g>
	</g>
</g>
</svg>
