<svg id="Layer_1" data-name="Layer 1" xmlns="http://www.w3.org/2000/svg" viewBox="0 0 64 64"><defs><style>.cls-1{fill:#c75c5c;}.cls-2{opacity:0.2;}.cls-3{fill:#231f20;}.cls-4{fill:#fff;}</style></defs><title>favorate</title><circle class="cls-1" cx="32" cy="32" r="32"/><g class="cls-2"><path class="cls-3" d="M470,283c-0.09-5.52-4.57-10.44-10.11-10.44a9.94,9.94,0,0,0-7.87,4.13,9.94,9.94,0,0,0-7.87-4.13c-5.53,0-10,4.92-10.11,10.44h0s0,0.07,0,.1,0,0,0,.08,0,0.27,0,.42c0.5,14.07,17.81,19.84,17.81,19.84s17.57-5.76,18.09-19.82c0-.16,0-0.28,0-0.44s0-.05,0-0.08,0-.07,0-0.1h0Z" transform="translate(-420 -252)"/></g><path class="cls-4" d="M470,281c-0.09-5.52-4.57-10.44-10.11-10.44a9.94,9.94,0,0,0-7.87,4.13,9.94,9.94,0,0,0-7.87-4.13c-5.53,0-10,4.92-10.11,10.44h0s0,0.07,0,.1,0,0,0,.08,0,0.27,0,.42c0.5,14.07,17.81,19.84,17.81,19.84s17.57-5.76,18.09-19.82c0-.16,0-0.28,0-0.44s0-.05,0-0.08,0-.07,0-0.1h0Z" transform="translate(-420 -252)"/></svg>