<svg id="Layer_1" data-name="Layer 1" xmlns="http://www.w3.org/2000/svg" viewBox="0 0 64 64"><defs><style>.cls-1{fill:#76c2af;}.cls-2{opacity:0.2;}.cls-3{fill:#231f20;}.cls-4{fill:#fff;}</style></defs><title>location</title><circle class="cls-1" cx="32" cy="32" r="32"/><g class="cls-2"><path class="cls-3" d="M368,686a16.9,16.9,0,0,0-17,16.8c0,14.7,17,25.2,17,25.2s17-10.24,17-25.2A16.9,16.9,0,0,0,368,686Zm0,24a8,8,0,1,1,8-8A8,8,0,0,1,368,710Z" transform="translate(-336 -672)"/></g><path class="cls-4" d="M368,684a16.9,16.9,0,0,0-17,16.8c0,14.7,17,25.2,17,25.2s17-10.24,17-25.2A16.9,16.9,0,0,0,368,684Zm0,24a8,8,0,1,1,8-8A8,8,0,0,1,368,708Z" transform="translate(-336 -672)"/></svg>