<?xml version="1.0" encoding="utf-8"?>
<!-- Generator: Adobe Illustrator 19.2.1, SVG Export Plug-In . SVG Version: 6.00 Build 0)  -->
<svg version="1.1" id="Layer_1" xmlns="http://www.w3.org/2000/svg" xmlns:xlink="http://www.w3.org/1999/xlink" x="0px" y="0px"
	 viewBox="0 0 640 480" style="enable-background:new 0 0 640 480;" xml:space="preserve">
<style type="text/css">
	.st0{fill:none;stroke:#000000;stroke-width:0.5;stroke-linecap:round;stroke-linejoin:round;}
</style>
<g id="XMLID_1_">
	<g>
		<polygon points="336.9,232.9 296.5,304.5 294.1,308.8 293.4,309.2 290.7,304.9 290.4,267.3 292.6,269.2 293.7,270.4 296.7,267.6 
			336.2,232.8 		"/>
		<polygon points="247.7,231 290.4,267.3 290.7,304.9 246.1,231 		"/>
		<path d="M434.4,154L434.4,154h-93.5l1.9,47.8l0.3,7.2l0.7,16.8l35.5,0.7l42.4-55.7l0.5-0.7L434.4,154L434.4,154z M239.1,223.8
			l0.8-16.2l0.3-5.5l2.3-48.1h-88.6l40.5,53.1l12.2,16L239.1,223.8z M296.5,304.5l-0.1,30.6l10.5-13.7l32.2-42.3v0l-2-46.2h-0.2
			l0.7-1.3l-1.4,1.2l-39.3-0.8l-0.2,35.6l-3.1,2.7l-1-1.2l-2.2-1.9l-0.3-35.4l-42.4-0.9l-3.3-2.8l1.7,2.8h0l-1.8,41.6L291,334
			l-0.3-29.1l2.6,4.3l0.8-0.5L296.5,304.5z M453.1,145.6L453.1,145.6L453.1,145.6l-13.8,18.1l-0.6,0.8l-65.1,85.4l-65.1,85.4
			l-14.4,18.9l-79.5-104.3L181,205.8l-45.9-60.2h162.2L453.1,145.6z M364.2,246l9.5-12.4L344,233l1.5,37.7L364.2,246z M336.8,225.6
			l-0.7-16.8l-0.3-7.1l-2.1-47.8h-36.3l-0.2,47.9l0,6.4l-0.1,16.5L336.8,225.6z M290,224.7l-0.1-16.5l-0.1-6.3l-0.4-47.9h-40
			l-2.1,48.1l-0.2,5.6l-0.7,16.3L290,224.7z M237.2,263.3l1.6-32.5l-26.8-0.6l12,15.8L237.2,263.3z"/>
	</g>
	<g>
		<polygon class="st0" points="237.2,263.3 224,246 212,230.3 238.8,230.8 		"/>
		<polygon class="st0" points="240.2,202.1 239.9,207.5 239.1,223.8 206.6,223.2 194.4,207.1 153.9,154 242.5,154 		"/>
		<polygon class="st0" points="297.3,145.6 135.1,145.6 181,205.8 214.6,249.9 294.1,354.2 308.5,335.3 373.6,249.9 438.7,164.5 
			439.3,163.7 453.1,145.6 453.1,145.6 453.1,145.6 		"/>
		<polygon class="st0" points="344,233 373.7,233.6 364.2,246 345.4,270.7 		"/>
		<polygon class="st0" points="342.7,201.8 340.9,154 434.4,154 434.4,154 434.4,154 422.2,170 421.6,170.7 379.2,226.4 
			343.7,225.7 343,208.9 		"/>
		<polygon class="st0" points="296.5,304.5 296.4,335.1 306.8,321.4 339.1,279 339.1,279 337.1,232.9 336.9,232.9 		"/>
		<polygon class="st0" points="336.2,232.8 336.9,232.9 337.6,231.6 		"/>
		<polygon class="st0" points="336.2,232.8 296.9,232 296.7,267.6 		"/>
		<polygon class="st0" points="336,208.8 335.7,201.8 333.6,154 297.3,154 297,201.9 297,208.3 296.9,224.9 336.8,225.6 		"/>
		<polyline class="st0" points="246.1,231 246.1,231 244.3,272.6 291,334 290.7,304.9 		"/>
		<polyline class="st0" points="290.4,267.3 290.1,231.9 247.7,231 		"/>
		<polygon class="st0" points="289.9,208.2 289.8,201.9 289.4,154 249.4,154 247.3,202.1 247.1,207.6 246.4,223.9 290,224.7 		"/>
		<line class="st0" x1="233.1" y1="138.7" x2="233.1" y2="138.7"/>
		<line class="st0" x1="331.5" y1="138.7" x2="331.5" y2="138.7"/>
		<line class="st0" x1="297.3" y1="145.6" x2="297.3" y2="145.6"/>
		<polyline class="st0" points="296.7,267.6 293.7,270.4 293.2,270.7 		"/>
		<line class="st0" x1="340.9" y1="228.7" x2="337.6" y2="231.6"/>
		<line class="st0" x1="340.9" y1="225.8" x2="337.6" y2="231.6"/>
		<line class="st0" x1="296.5" y1="304.5" x2="294.1" y2="308.8"/>
		<polyline class="st0" points="241.4,225.6 244.4,228.2 247.7,231 		"/>
		<line class="st0" x1="292.6" y1="269.2" x2="290.4" y2="267.3"/>
		<polygon class="st0" points="290.7,304.9 246.1,231 247.7,231 290.4,267.3 		"/>
		<polyline class="st0" points="294.1,310.5 293.4,309.2 290.7,304.9 		"/>
		<line class="st0" x1="246.1" y1="231" x2="244.4" y2="228.2"/>
	</g>
</g>
</svg>
