<svg id="Layer_1" data-name="Layer 1" xmlns="http://www.w3.org/2000/svg" viewBox="0 0 64 64"><defs><style>.cls-1{fill:#e0e0d1;}.cls-2{opacity:0.2;}.cls-3{fill:#231f20;}.cls-4{fill:#4f5d73;}</style></defs><title>Elegant_circle-icons</title><circle class="cls-1" cx="32" cy="32" r="32"/><g class="cls-2"><path class="cls-3" d="M46,452.75c-0.22,3.52-1.83,8.8-8.29,13.93a1.66,1.66,0,0,1-2.37-.31,1.75,1.75,0,0,1,.3-2.42c5.26-4.18,6.7-8.27,7-11.08a5,5,0,0,1-2.49.69,5.26,5.26,0,0,1,0-10.51,4.81,4.81,0,0,1,1.79.39l0,0a4.69,4.69,0,0,1,.59.28l0.05,0,0,0a5.35,5.35,0,0,1,.81.57c0.13,0.11.24,0.24,0.36,0.36C44.95,445.88,46.34,448.24,46,452.75Zm-22.8.81a5.26,5.26,0,0,1,0-10.51,4.81,4.81,0,0,1,1.79.39l0,0a4.69,4.69,0,0,1,.59.28l0.05,0,0,0a5.35,5.35,0,0,1,.81.57c0.13,0.11.24,0.24,0.36,0.36,1.27,1.24,2.66,3.61,2.29,8.11-0.22,3.52-1.83,8.8-8.29,13.93a1.66,1.66,0,0,1-2.37-.31,1.75,1.75,0,0,1,.3-2.42c5.26-4.18,6.7-8.27,7-11.08A5.07,5.07,0,0,1,23.16,453.55Z" transform="translate(0 -420)"/></g><path class="cls-4" d="M46,450.75c-0.22,3.52-1.83,8.8-8.29,13.93a1.66,1.66,0,0,1-2.37-.31,1.75,1.75,0,0,1,.3-2.42c5.26-4.18,6.7-8.27,7-11.08a5,5,0,0,1-2.49.69,5.26,5.26,0,0,1,0-10.51,4.81,4.81,0,0,1,1.79.39l0,0a4.69,4.69,0,0,1,.59.28l0.05,0,0,0a5.35,5.35,0,0,1,.81.57c0.13,0.11.24,0.24,0.36,0.36C44.95,443.88,46.34,446.24,46,450.75Zm-22.8.81a5.26,5.26,0,0,1,0-10.51,4.81,4.81,0,0,1,1.79.39l0,0a4.69,4.69,0,0,1,.59.28l0.05,0,0,0a5.35,5.35,0,0,1,.81.57c0.13,0.11.24,0.24,0.36,0.36,1.27,1.24,2.66,3.61,2.29,8.11-0.22,3.52-1.83,8.8-8.29,13.93a1.66,1.66,0,0,1-2.37-.31,1.75,1.75,0,0,1,.3-2.42c5.26-4.18,6.7-8.27,7-11.08A5.07,5.07,0,0,1,23.16,451.55Z" transform="translate(0 -420)"/></svg>