<svg id="Layer_1" data-name="Layer 1" xmlns="http://www.w3.org/2000/svg" viewBox="0 0 64 64"><defs><style>.cls-1{fill:#c75c5c;}.cls-2{fill:#4f5d73;}.cls-3{opacity:0.2;}.cls-4{fill:#231f20;}.cls-5{fill:#e0e0d1;}</style></defs><title>index</title><circle class="cls-1" cx="32" cy="32" r="32"/><rect class="cls-2" x="16.17" y="30" width="4" height="4"/><rect class="cls-2" x="16.17" y="37" width="4" height="4"/><rect class="cls-2" x="16.17" y="44" width="4" height="4"/><rect class="cls-2" x="16.17" y="23" width="4" height="4"/><rect class="cls-2" x="16.17" y="16" width="4" height="4"/><rect class="cls-2" x="44.17" y="30" width="4" height="4"/><rect class="cls-2" x="44.17" y="37" width="4" height="4"/><rect class="cls-2" x="44.17" y="44" width="4" height="4"/><rect class="cls-2" x="44.17" y="23" width="4" height="4"/><rect class="cls-2" x="44.17" y="16" width="4" height="4"/><rect class="cls-2" x="24.17" y="16" width="16" height="14"/><rect class="cls-2" x="24.17" y="34" width="16" height="14"/><g class="cls-3"><path class="cls-4" d="M468,938H436a4,4,0,0,0-4,4v32a4,4,0,0,0,4,4h32a4,4,0,0,0,4-4V942A4,4,0,0,0,468,938Zm-28,36h-4v-4h4v4Zm0-7h-4v-4h4v4Zm0-7h-4v-4h4v4Zm0-7h-4v-4h4v4Zm0-7h-4v-4h4v4Zm20,28H444V960h16v14Zm0-18H444V942h16v14Zm8,18h-4v-4h4v4Zm0-7h-4v-4h4v4Zm0-7h-4v-4h4v4Zm0-7h-4v-4h4v4Zm0-7h-4v-4h4v4Z" transform="translate(-419.83 -924)"/></g><path class="cls-5" d="M468,936H436a4,4,0,0,0-4,4v32a4,4,0,0,0,4,4h32a4,4,0,0,0,4-4V940A4,4,0,0,0,468,936Zm-28,36h-4v-4h4v4Zm0-7h-4v-4h4v4Zm0-7h-4v-4h4v4Zm0-7h-4v-4h4v4Zm0-7h-4v-4h4v4Zm20,28H444V958h16v14Zm0-18H444V940h16v14Zm8,18h-4v-4h4v4Zm0-7h-4v-4h4v4Zm0-7h-4v-4h4v4Zm0-7h-4v-4h4v4Zm0-7h-4v-4h4v4Z" transform="translate(-419.83 -924)"/></svg>